<svg width="247" height="200" viewBox="0 0 247 200" fill="none" xmlns="http://www.w3.org/2000/svg">
<g id="Layer 1">
<g id="Group">
<path id="Vector" d="M98.6832 10.7105C99.2389 12.3072 100.593 17.4329 97.5256 14.4709C95.8354 11.7171 96.2985 3.83195 98.6832 10.7105Z" fill="#B07854"/>
<g id="Group_2">
<path id="Vector_2" d="M28.6515 37.9008C28.721 39.4223 27.7196 49.7314 25.1786 47.157C24.9471 44.3223 26.2899 41.7248 27.4939 39.4917C27.6097 39.2776 27.3781 38.514 27.4939 38.3347C28.2 37.247 28.5763 37.9644 28.6515 37.9008Z" fill="#B07854"/>
<path id="Vector_3" d="M221.387 52.3637C221.046 54.0703 221.231 57.2753 218.783 55.8348C219.663 54.5852 220.704 49.5752 221.098 49.3264C223.066 48.0884 221.648 51.0562 221.387 52.3637Z" fill="#9E603F"/>
</g>
<g id="Group_3">
<path id="Vector_4" d="M84.5019 7.52866C84.9939 8.45428 84.7798 9.66338 84.7914 10.7105C84.8897 20.3254 80.6759 17.3981 83.0549 9.26421C83.1649 8.88239 83.2285 8.13031 83.3443 7.67329C84.0099 6.72452 84.4441 7.54601 84.5019 7.52866Z" fill="#B07854"/>
<path id="Vector_5" d="M119.81 2.61127C116.933 6.83444 114.149 7.37246 117.205 3.18979C119.387 0.204644 122.889 -1.90694 119.81 2.61127Z" fill="#96501F"/>
<g id="Group_4">
<path id="Vector_6" d="M2.31528 72.9011C3.19509 74.4457 3.57711 79.1606 4.91997 81.0003C4.2196 83.4706 4.07489 82.9152 4.05174 83.0251L0 71.3102L0.434115 70.8763C0.769831 71.3449 2.24582 72.7796 2.31528 72.9011Z" fill="#C3C77E"/>
<path id="Vector_7" d="M75.2408 8.10725C75.2756 8.3618 75.7618 8.81882 75.5302 9.11965C75.2756 9.44941 74.5983 9.14279 74.3726 9.26428C73.6606 8.69155 70.8071 1.46588 70.8997 1.02043C70.917 0.939433 72.121 0.00223712 72.202 0.00802228C72.6361 0.0543036 75.1193 7.21055 75.2408 8.10725Z" fill="#AC6936"/>
<path id="Vector_8" d="M4.63067 94.0111L4.05185 94.3004C3.99397 94.0806 1.91022 91.645 1.73657 90.54C2.59901 91.5929 3.71035 93.0797 4.63067 94.0111Z" fill="#514A27"/>
<path id="Vector_9" d="M2.89429 107.317C2.9348 107.028 3.19527 106.993 3.1837 106.738C3.1837 106.796 4.09823 107.207 2.89429 107.317Z" fill="#4C3E35"/>
</g>
<g id="Group_5">
<path id="Vector_10" d="M124.151 35.8759C123.711 40.6545 124.707 39.7404 126.467 36.1652L127.624 36.7437C126.658 38.8611 125.818 41.2098 124.441 43.1074C123.219 44.7909 121.344 46.5553 122.125 43.1074C122.264 42.5057 123.254 41.1289 123.283 40.9379C123.549 39.3007 122.588 37.0503 123.862 35.5867C124.267 35.6966 124.134 35.8701 124.151 35.8759Z" fill="#7A7C2D"/>
<path id="Vector_11" d="M126.467 35.876C126.432 35.9569 126.507 36.09 126.467 36.1652C124.707 39.7404 123.712 40.6545 124.152 35.876C124.261 35.8991 124.806 35.4594 126.467 35.876Z" fill="#A3A846"/>
</g>
<g id="Group_6">
<path id="Vector_12" d="M66.1299 21.1238C69.8286 19.8684 67.8606 29.7321 65.6958 24.4502C65.4006 23.7329 65.1806 21.4478 66.1299 21.1238Z" fill="#9E603F"/>
<g id="Group_7">
<path id="Vector_13" d="M53.1061 26.0412C53.3897 26.1395 54.6342 31.3751 53.6849 31.8264C51.9427 32.6536 50.9471 25.2718 53.1061 26.0412Z" fill="#AC6936"/>
<path id="Vector_14" d="M23.8756 49.7604C24.5181 53.1852 27.719 57.4315 23.1521 57.1365C25.2822 54.0472 23.6209 53.2604 23.8756 49.7604Z" fill="#8F684E"/>
</g>
<g id="Group_8">
<path id="Vector_15" d="M127.913 35.8759C127.896 35.9164 127.884 36.171 127.624 36.7437L126.466 36.1652C126.507 36.09 126.431 35.9569 126.466 35.8759C127.473 33.6775 128.359 28.1238 130.373 28.9337C131.652 29.4486 128.712 34.0536 127.913 35.8759Z" fill="#AC6936"/>
<path id="Vector_16" d="M109.825 12.446C110.948 12.3303 111.394 19.7874 108.378 18.8097C106.526 18.2081 109.478 12.4807 109.825 12.446Z" fill="#9E603F"/>
<path id="Vector_17" d="M77.5558 23.7271H76.9769C76.6296 20.6841 75.6225 22.0552 75.2405 20.9792C76.0682 16.6519 75.4836 9.20057 76.3981 17.7973C79.7842 20.2444 77.2721 21.8643 77.2663 22.1362C77.249 23.0676 77.5731 23.3106 77.5558 23.7271Z" fill="#B07854"/>
<path id="Vector_18" d="M35.4524 46.5785C39.0816 46.0174 38.086 51.8951 34.5841 50.0496C32.6509 49.0314 34.3642 46.7463 35.4524 46.5785Z" fill="#9E603F"/>
<path id="Vector_19" d="M100.709 33.8511L99.8404 33.5619C99.1284 31.8205 97.6814 34.8173 97.5251 36.1652C97.3399 36.1941 97.1315 36.1363 96.9463 36.1652C98.1097 34.7941 96.5816 30.8081 97.9592 30.38C99.9793 29.7495 100.159 32.6478 100.709 33.8511Z" fill="#967038"/>
<path id="Vector_20" d="M86.6722 17.9419C89.0859 17.4675 88.3623 22.1709 86.0934 21.7023C84.2006 21.3089 85.4161 18.1849 86.6722 17.9419Z" fill="#9E603F"/>
<g id="Group_9">
<path id="Vector_21" d="M23.4421 62.4877C23.3205 62.7596 21.8156 65.5249 21.7056 65.6695C20.9474 66.6877 20.1139 67.677 19.3903 66.248C19.6971 65.8199 20.1023 65.2993 20.2586 64.8017C20.6232 63.6563 20.5306 62.6149 20.8374 61.4753C16.9072 60.2488 21.0458 60.781 21.1268 60.6075C21.341 60.1563 20.8605 58.0157 21.2715 56.9918C22.4581 56.0835 22.0587 62.291 23.4421 62.4877Z" fill="#A3A846"/>
<path id="Vector_22" d="M30.6771 57.5703C30.4861 58.0216 29.5426 60.7117 29.3748 60.7522C28.8017 60.8852 28.6512 59.4794 28.3618 59.3059C29.6931 55.7827 30.5498 55.8753 30.6771 55.6902C32.8824 52.4562 33.2934 51.4438 30.6771 57.5703Z" fill="#7A7C2D"/>
<path id="Vector_23" d="M139.49 37.3222C138.014 40.1338 137.701 38.6817 137.174 38.9131C137.087 38.9536 137.516 40.4404 136.161 39.9255C135.884 39.8214 136.063 39.0693 136.017 39.0578C136.844 37.0272 138.818 33.423 137.464 36.8883C137.574 37.0272 138.604 37.0735 139.49 37.3222Z" fill="#A3A846"/>
</g>
<path id="Vector_24" d="M11.4313 65.091C11.5066 65.0621 13.0057 65.1604 13.0231 65.2356C13.764 68.2497 8.25941 66.3232 11.4313 65.091Z" fill="#A48558"/>
<path id="Vector_25" d="M13.4573 63.0662C14.8638 63.0431 13.2142 64.8133 12.8785 64.8018C11.825 64.7728 12.4733 63.0836 13.4573 63.0662Z" fill="#967038"/>
</g>
</g>
<path id="Vector_26" d="M99.8407 33.5619C100.09 34.1635 99.9449 35.4016 100.13 35.8759C99.7654 35.928 99.3024 35.7949 98.9724 35.8759C98.411 36.0148 98.0811 36.0726 97.5254 36.1652C97.6817 34.8173 99.1287 31.8205 99.8407 33.5619Z" fill="#F1EADF"/>
<path id="Vector_27" d="M181.454 50.0496C181.02 50.6512 180.604 49.9049 180.586 51.062C180.575 51.8835 181.153 52.6182 181.744 52.6529C182.398 52.6934 185.292 49.8355 186.374 50.3388C186.062 50.7727 183.845 55.7132 183.77 56.124C182.751 56.338 183.955 53.8736 183.046 53.5207C182.543 53.3298 181.987 54.7008 181.31 54.6777C180.824 54.6603 176.367 51.3686 172.772 50.3388C172.622 50.2983 172.379 50.362 172.193 50.3388C172.564 49.7603 172.847 49.1008 173.351 48.6033C177.218 44.7966 174.208 49.5289 175.522 49.4711L177.258 46.8677L177.547 50.0496C181.582 43.4661 176.656 53.6479 181.02 48.0248L181.454 50.0496Z" fill="#A3A846"/>
<path id="Vector_28" d="M187.243 53.5207C187.92 55.5282 188.215 55.5571 188.979 57.2811C188.551 57.4083 185.408 58.143 185.217 58.1488C183.602 58.2183 183.509 57.5067 183.77 56.124C183.845 55.7133 186.062 50.7728 186.374 50.3389C188.175 47.8397 187.908 49.4537 186.374 52.7976C186.467 53.0637 187.225 53.4686 187.243 53.5207Z" fill="#967038"/>
<path id="Vector_29" d="M190.716 54.6777C190.588 55.0306 190.802 56.1588 190.716 56.8472C189.928 57.4431 189.24 57.2059 188.979 57.2811C188.215 55.5571 187.92 55.5282 187.243 53.5207C189.297 54.4232 188.852 52.7339 189.992 51.4959C190.745 51.7389 188.238 54.5563 190.716 54.6777Z" fill="#BCBC3D"/>
<path id="Vector_30" d="M181.744 52.6529C181.153 52.6182 180.575 51.8835 180.586 51.062C180.603 49.905 181.02 50.6513 181.454 50.0496C184.019 46.4686 182.23 51.2471 181.744 52.6529Z" fill="#865A36"/>
<path id="Vector_31" d="M164.958 57.8596C164.026 60.0001 162.99 62.0827 162.064 64.2232C161.103 63.5464 158.139 65.9704 155.986 63.2108C155.784 62.9505 155.951 62.3373 155.118 61.3307C154.157 60.1678 147.489 52.4678 147.014 52.0744C153.462 52.3405 158.759 56.6852 164.958 57.8596Z" fill="#5A2F1B"/>
<g id="Group_10">
<path id="Vector_32" d="M171.904 14.4708C168.958 16.7213 172.199 22.6915 175.377 22.57C176.627 25.2775 177.443 27.4701 180.007 24.8841C180.557 24.3287 180.644 23.4667 181.454 23.1486C181.582 24.9767 180.933 27.4874 179.428 28.6445C178.607 29.275 177.623 29.0784 176.245 30.0908C174.7 29.142 173.334 32.3875 173.785 28.6445C172.691 28.0544 169.473 33.5445 170.167 38.19L169.01 37.9007C167.592 35.0197 166.885 31.8147 165.826 28.7891C163.835 23.1081 160.009 21.6965 167.563 14.4708C169.432 14.2047 169.988 14.1237 171.904 14.4708Z" fill="#8E7A32"/>
<path id="Vector_33" d="M180.297 19.6775C180.841 20.5163 181.379 22.113 181.454 23.1486C180.644 23.4668 180.557 24.3287 180.007 24.8841C178.983 24.6296 177.189 21.7138 176.969 21.7023C176.801 21.6907 176.679 22.518 175.377 22.5701C172.199 22.6915 168.958 16.7213 171.904 14.4708C174.433 14.9279 178.948 17.5948 180.297 19.6775Z" fill="#CDBD7A"/>
<path id="Vector_34" d="M188.111 41.0826C184.192 46.0462 178.827 44.5074 173.93 46.2892C173.71 46.3702 173.53 45.8438 173.206 46C172.523 46.3644 170.376 49.4595 169.878 50.3388C168.663 52.4793 168.35 54.4637 167.563 56.7025C167.551 56.7314 167.522 56.5463 167.273 57.281C165.242 63.3323 166.845 63.8298 162.353 64.5125C162.336 64.5009 162.382 64.4488 162.064 64.2232C162.99 62.0827 164.026 60.0001 164.958 57.8595C164.999 57.7612 165.878 57.2174 166.116 56.124C166.179 55.829 166.504 55.7422 166.405 55.1116C165.838 53.9893 165.016 53.3356 164.958 53.2314C164.576 52.5314 164.194 51.895 163.8 51.2066C162.95 49.7198 161.844 49.2802 162.643 48.314C163.065 47.9958 163.783 46.3066 163.8 46C165.288 45.8958 165.01 46.295 165.537 47.4463C165.601 47.5909 164.837 49.2744 166.984 49.905L169.878 43.1074C170.717 43.5355 175.632 44.519 176.245 43.9752C176.28 43.9462 176.187 43.5644 176.534 43.1074C177.403 43.6049 180.239 43.8305 181.31 43.6859C183.544 43.3793 185.888 41.609 188.111 41.0826Z" fill="#5A2F1B"/>
<g id="Group_11">
<path id="Vector_35" d="M167.563 14.4708C160.009 21.6965 163.835 23.1081 165.826 28.7891C166.885 31.8147 167.592 35.0197 169.01 37.9007C168.321 38.6991 168.952 40.8512 168.72 41.9503C168.327 43.8305 166.318 45.6702 165.537 47.4462C165.01 46.295 165.288 45.8958 163.8 46C163.824 45.6413 164.379 45.6702 163.656 45.1322C160.692 45.3636 159.274 43.9404 157.144 42.5289C156.513 42.1065 151.367 37.9007 151.066 37.4668C146.308 30.6693 152.809 24.0279 161.485 27.6321C158.331 24.3461 158.927 18.8271 162.643 16.2064C164.182 15.1245 165.757 14.7254 167.563 14.4708Z" fill="#553F16"/>
<path id="Vector_36" d="M157.723 35.0081C163.169 34.204 161.392 34.2214 161.774 28.9337C164.512 28.9337 166.862 39.3991 166.984 41.8057C163.864 42.4594 158.238 37.8486 157.723 35.0081Z" fill="#7C6928"/>
<path id="Vector_37" d="M157.723 35.0081C157.121 31.6643 159.575 28.9395 161.774 28.9337C161.392 34.2214 163.169 34.204 157.723 35.0081Z" fill="#8E7A32"/>
</g>
<path id="Vector_38" d="M170.167 38.19C170.596 41.0768 173.467 43.3504 176.245 43.9752C175.631 44.519 170.717 43.5355 169.878 43.1074C169.803 43.0727 169.183 41.9851 168.72 41.9504C168.952 40.8512 168.321 38.6991 169.01 37.9008L170.167 38.19Z" fill="#FFFDFA"/>
<path id="Vector_39" d="M169.878 43.1074L166.984 49.905C164.837 49.2744 165.601 47.5909 165.537 47.4463C166.318 45.6702 168.327 43.8306 168.72 41.9504C169.183 41.9851 169.803 43.0727 169.878 43.1074Z" fill="#A3A846"/>
<path id="Vector_40" d="M173.93 46.2892L173.351 48.6033C172.847 49.1008 172.564 49.7603 172.193 50.3388C172.164 50.3851 171.528 50.6802 171.325 51.062C171.117 51.4554 170.92 53.0116 170.746 53.5207C170.607 53.9314 170.272 54.5331 170.168 54.967C168.732 51.976 172.321 49.7025 169.878 50.3388C170.376 49.4595 172.523 46.3644 173.206 46C173.53 45.8438 173.71 46.3702 173.93 46.2892Z" fill="#C79682"/>
<g id="Group_12">
<path id="Vector_41" d="M188.111 41.0826C185.888 41.609 183.544 43.3793 181.31 43.6859C180.239 43.8305 177.403 43.6049 176.535 43.1074C174.37 41.8693 170.075 34.6321 176.245 30.0908C177.623 29.0784 178.607 29.2751 179.429 28.6445C186.924 28.3147 193.83 33.8338 188.111 41.0826Z" fill="url(#paint0_linear_96_2288)"/>
<path id="Vector_42" d="M176.245 30.0908C170.075 34.6321 174.37 41.8694 176.535 43.1074C176.187 43.5644 176.28 43.9462 176.245 43.9752C173.467 43.3504 170.602 41.0768 170.168 38.19C169.473 33.5445 172.691 28.0544 173.785 28.6445C173.334 32.3875 174.7 29.142 176.245 30.0908Z" fill="#42320F"/>
</g>
<path id="Vector_43" d="M180.008 24.8841C177.443 27.4701 176.627 25.2775 175.377 22.57C176.679 22.518 176.801 21.6907 176.969 21.7023C177.189 21.7138 178.983 24.6296 180.008 24.8841Z" fill="#B8A353"/>
<path id="Vector_44" d="M169.299 62.4877C169.23 63.6332 169.548 64.9348 169.01 65.9588C168.836 65.8836 167.719 65.7274 167.273 65.6696C166.087 65.5134 166.006 64.8943 164.958 65.9588C161.34 65.039 162.504 64.5877 162.353 64.5125C166.845 63.8299 165.242 63.3323 167.273 57.2811L169.299 62.4877Z" fill="#8E5647"/>
<path id="Vector_45" d="M170.167 54.967C169.895 56.124 169.739 57.2637 169.589 58.4381L167.563 56.7025C168.35 54.4694 168.663 52.4793 169.878 50.3388C172.321 49.7025 168.732 51.9703 170.167 54.967Z" fill="#BC836E"/>
<path id="Vector_46" d="M169.589 58.438C169.531 58.9066 169.629 59.4099 169.589 59.8843C169.508 60.7694 169.357 61.5909 169.299 62.4876L167.273 57.281C167.522 56.5463 167.551 56.7314 167.563 56.7025L169.589 58.438Z" fill="#C79682"/>
</g>
<path id="Vector_47" d="M167.273 65.6695C168.031 67.2605 163.465 67.4745 164.958 65.9588C166.006 64.8943 166.087 65.5133 167.273 65.6695Z" fill="#42320F"/>
<g id="Group_13">
<path id="Vector_48" d="M47.1742 84.182C46.1555 84.8415 45.021 88.9663 45.8719 89.6779L56.1459 93.149C59.6478 94.3176 58.3107 98.1011 62.9471 98.0664C65.0482 101.161 67.4213 99.0383 69.0247 99.5127C69.343 99.6052 72.0403 102.625 74.0894 103.852C74.5582 105.402 71.2821 104.592 68.4459 104.43C68.1449 104.592 68.3938 105.09 68.3012 105.298C67.8786 106.264 67.7918 108.15 67.4329 109.637C64.9903 119.824 65.1119 121.705 64.5388 112.095C64.0352 111.071 63.4796 112.726 63.0918 112.385C62.6808 112.026 62.9297 108.613 61.2106 107.323L60.053 116C59.2658 112.865 58.4554 109.527 58.1718 106.31C57.5582 99.4143 60.0124 99.4432 56.1459 102.55C56.58 102.822 56.3948 103.175 56.4353 103.562C56.0475 103.377 55.133 103.695 54.4095 103.852C53.8827 103.967 54.1374 105.049 53.5412 103.707C53.275 103.111 51.7353 96.5564 51.3707 96.6201L51.226 103.707C56.1633 115.914 50.6008 107.028 49.3448 101.248C49.119 107.542 48.1582 108.393 48.3319 101.971C45.6345 106.646 47.6778 100.548 47.753 99.9466C47.944 98.3961 48.2566 92.3275 46.8848 97.054C46.5491 98.211 46.0339 104.806 45.1483 98.7895C45.1136 98.535 46.0687 95.1217 44.5695 94.1614L45.293 90.8349C39.9679 97.887 44.5695 94.1614 45.1483 97.6325C45.2467 98.2399 44.5522 98.0085 44.5695 98.211C45.0557 103.961 44.72 103.099 43.2672 98.3556C41.5076 102.637 41.085 102.336 41.386 97.7771C41.2355 96.5564 40.4888 97.5746 40.8072 95.1738C40.9172 94.3581 42.1385 92.1134 41.5307 91.7027L39.0707 93.4382H38.7813C38.8623 93.1201 39.6901 89.4754 39.5048 89.3886C35.3547 94.7804 38.7234 86.9184 35.3084 92.5705C35.2042 91.0663 35.2737 91.911 34.7296 92.5705C33.6761 93.849 34.0581 96.4639 33.2825 97.9217C32.287 99.7904 33.2478 94.4333 33.8613 91.8473C33.8845 91.7432 34.7701 91.1647 35.019 90.1118C35.5747 87.7283 35.9335 84.72 34.1508 86.6407C33.1378 87.7341 32.5358 89.8746 31.6908 91.1242C30.701 85.8076 34.1334 74.7811 29.3755 86.4961L28.3625 79.4092C30.8457 79.2241 29.798 77.4365 30.2437 76.9505C30.3653 76.8117 33.6819 76.5282 33.8613 76.2274C33.9945 76.0018 33.7745 73.9191 33.8613 73.1902C37.2069 74.8563 40.3499 77.61 43.846 78.6861C45.322 79.791 43.9733 80.3464 47.1742 84.182Z" fill="#5A2F1B"/>
<path id="Vector_49" d="M147.883 127.276C147.883 127.362 148.473 128.52 148.462 128.867L146.002 130.458C145.284 130.504 145.07 129.162 144.41 128.433C145.568 128.047 146.725 127.661 147.883 127.276Z" fill="#8D322F"/>
<g id="Group_14">
<path id="Vector_50" d="M109.681 157.359C119.973 161.073 129.205 167.459 139.346 171.532C140.828 171.405 140.885 166.424 146.147 166.904C150.367 167.286 169.803 175.333 178.127 175.871C187.735 176.496 186.195 175.819 185.941 169.507C190.704 169.721 201.407 168.68 202.871 171.821C201.957 172.718 201.089 173.748 199.977 174.425C195.312 177.271 189.217 177.659 183.915 178.185C181.391 181.338 178.37 184.277 174.509 185.706C170.845 186.302 167.777 182.53 164.669 180.788C164.791 179.232 163.674 177.751 162.209 177.317C160.687 176.866 145.939 176.397 140.793 175.582C136.301 174.87 128.053 172.741 123.718 171.243C121.611 170.514 103.239 162.137 100.71 160.83C97.2771 159.059 102.996 159.725 106.642 156.201C107.644 156.63 108.657 156.988 109.681 157.359Z" fill="#5A2F1B"/>
<path id="Vector_51" d="M5.78853 96.9036C5.78853 98.3499 5.63804 101.561 5.78853 102.255C6.03163 103.389 9.15147 106.368 8.97204 106.594C8.65369 106.999 6.96932 106.478 6.65676 106.883C6.41366 107.201 12.1903 112.24 12.5897 112.234C13.6026 112.223 13.0006 111.089 13.7473 111.077C14.1004 111.071 16.5604 114.01 20.259 112.524C20.6642 114.814 21.0173 112.766 21.4167 113.536C22.1171 114.89 20.0275 115.208 24.3108 114.982C19.877 118.286 23.512 116.793 23.8767 116.862C29.4507 117.933 25.2311 118.662 26.0472 120.912C26.3772 121.82 30.1048 124.082 31.2566 124.962C32.941 126.24 36.3792 128.357 37.4789 129.3C39.1517 130.735 39.3485 131.956 39.5048 131.904C39.9621 131.759 38.8507 129.821 41.8201 133.061C40.292 128.201 42.6304 132.419 43.2671 130.168C44.6332 133.385 44.3727 129.59 44.7142 129.59C45.1367 130.267 45.7561 133.188 45.8718 133.35C47.4231 135.548 47.5215 129.873 49.0553 132.772C49.3505 127.119 49.9815 138.788 50.7918 130.747C51.3243 130.747 50.705 140.576 51.9494 133.639C52.6247 134.604 53.3 135.568 53.9753 136.532C54.3805 130 54.2647 138.21 55.8565 134.652C57.1067 139.986 57.2167 131.1 58.0271 138.846C58.4901 137.238 59.9835 137.319 60.3423 138.557C62.484 136.937 62.0093 138.401 63.5259 137.4C61.691 140.136 61.0543 140.963 64.3941 140.003C63.2654 142.676 66.8656 143.746 66.7094 140.582C66.8483 140.981 67.6123 142.959 67.7223 143.04C70.738 145.227 65.6733 136.752 71.9187 144.631C71.0852 141.021 72.1329 142.23 73.6552 144.342C74.0314 141.756 75.4496 142.925 74.8129 145.21C75.2122 145.412 76.4567 143.694 76.5493 143.763C76.7635 143.931 76.9892 147.605 80.0222 144.053C78.1121 150.839 80.7979 144.614 80.4563 147.958C82.407 147.026 81.232 148.426 81.7587 148.681C81.8629 148.727 82.8121 146.911 83.2057 146.945C83.7035 146.992 84.0508 150.249 85.2316 146.367C86.1519 150.752 87.4716 144.388 87.1128 147.958C88.6235 148.837 89.6596 145.655 90.441 146.077C84.9306 156.207 94.3249 146.049 92.0328 151.573C88.9824 152.713 78.2453 151.087 74.8129 150.127C69.9218 148.756 54.9014 140.026 51.66 139.714C48.9685 139.453 51.6253 140.929 51.5153 144.053C47.9961 142.221 44.4749 140.389 40.9519 138.557C32.2927 131.626 7.94174 119.506 4.63089 109.342C3.72793 106.571 4.37042 105.564 3.18384 105.871C3.2533 102.776 3.89579 99.7036 4.05207 96.6143L5.78853 96.9036Z" fill="#361A08"/>
<g id="Group_15">
<path id="Vector_52" d="M217.915 156.78C217.243 157.468 216.647 158.608 215.889 159.383C213.793 161.535 211.391 163.387 209.232 165.458C209.088 165.597 207.276 166.031 206.049 167.772C206.448 167.332 206.014 166.117 206.049 166.036C206.159 165.799 207.832 165.417 207.785 161.408C212.294 160.06 219.414 153.124 217.915 156.78Z" fill="#5A2F1B"/>
<path id="Vector_53" d="M240.489 137.978C236.321 147.796 233.473 145.482 231.083 146.367C229.786 146.847 225.156 148.895 224.282 149.549C223.865 147.362 217.214 149.896 211.692 150.416C205.268 151.024 198.744 150.949 192.302 151.284C198.773 153.066 207.681 152.169 207.785 161.408C207.832 165.417 206.159 165.799 206.049 166.036C202.912 164.295 200.076 161.009 196.933 158.805C188.574 152.95 179.331 150.387 170.162 146.222C170.226 145.441 175.383 145.262 176.384 145.21C182.757 144.874 189.252 145.285 195.63 145.21C202.651 145.123 209.626 145.875 216.612 144.92C224.722 143.179 232.38 139.315 240.489 137.978Z" fill="#5A2F1B"/>
</g>
<path id="Vector_54" d="M224.282 149.549C222.95 150.544 219.628 155.016 217.915 156.78C219.414 153.124 212.294 160.06 207.785 161.408C207.681 152.169 198.773 153.066 192.302 151.284C198.744 150.949 205.267 151.024 211.692 150.416C217.214 149.896 223.865 147.362 224.282 149.549Z" fill="#774229"/>
<path id="Vector_55" d="M241.357 106.738C241.357 106.738 241.264 107.132 241.936 107.028C242.798 109.695 243.169 112.338 243.383 115.127C242.868 122.671 242.254 119.79 240.054 119.176C239.95 119.148 238.81 119.437 237.884 119.176C237.583 119.09 234.359 115.364 234.7 120.912C234.075 120.559 233.977 118.274 230.793 121.78C229.809 122.104 226.724 119.477 228.333 122.358C227.344 121.948 225.567 121.71 224.571 120.912C229.068 117.829 237.288 110.846 240.199 106.16C240.263 106.247 241.033 106.547 241.357 106.738Z" fill="#9E603F"/>
<path id="Vector_56" d="M164.669 180.788C164.582 181.911 162.782 184.04 162.064 184.983C162.047 185.006 162.47 185.283 162.354 185.417C160.421 187.713 160.299 186.487 160.183 186.574C158.794 187.655 157.567 188.911 155.987 189.755C148.752 193.614 149.66 190.461 143.687 188.888C141.204 188.234 136.62 188.101 133.413 187.441C122.039 185.104 118.473 185.127 108.958 177.317C101.85 171.48 102.475 169.421 91.159 163.144C91.1358 162.964 91.5236 162.571 91.5931 162.565C93.2659 162.38 101.734 163.497 100.709 160.83C103.239 162.137 121.611 170.514 123.718 171.243C128.053 172.741 136.301 174.87 140.793 175.582C145.939 176.397 160.687 176.866 162.209 177.317C163.674 177.751 164.791 179.232 164.669 180.788Z" fill="#5A2F1B"/>
<path id="Vector_57" d="M174.509 185.706C169.444 187.58 167.47 186.736 162.354 185.417C162.469 185.284 162.047 185.006 162.064 184.983C162.782 184.04 164.582 181.911 164.669 180.788C167.777 182.53 170.845 186.302 174.509 185.706Z" fill="#361A08"/>
<path id="Vector_58" d="M92.0271 151.573C92.2297 151.498 92.4207 151.88 92.4612 151.863C94.1803 151.047 93.5725 147.576 94.4871 151.573C95.7836 152.366 94.6723 147.726 95.9341 151.573L97.3812 149.838C97.5895 149.919 96.5708 151.614 97.8153 152.441C98.3246 152.782 99.5054 152.892 100.131 152.441C101.086 151.753 100.513 150.115 100.854 150.127C102.099 156.277 102.533 151.625 102.735 151.429C104.043 150.133 106.451 157.26 105.195 151.284C105.653 151.151 107.979 155.49 113.443 154.611C108.819 148.744 113.293 154.223 120.1 156.78L110.405 155.044C109.241 156.028 109.426 155.982 109.681 157.359C108.657 156.988 107.644 156.63 106.642 156.201C102.996 159.725 97.277 159.059 100.709 160.83C101.734 163.497 93.2657 162.38 91.593 162.565C91.5235 162.571 91.1357 162.964 91.1588 163.144C82.0366 158.087 62.6288 149.786 51.5096 144.053C51.6196 140.929 48.9628 139.453 51.6543 139.714C54.89 140.026 69.9103 148.756 74.8072 150.127C78.2396 151.087 88.9767 152.713 92.0271 151.573Z" fill="#5A2F1B"/>
<g id="Group_16">
<path id="Vector_59" d="M4.63101 109.342C2.50674 109.741 4.22005 107.6 2.89455 107.606C2.89455 107.514 2.88297 107.409 2.89455 107.317C4.0985 107.207 3.18396 106.796 3.18396 106.738C3.17238 106.449 3.17817 106.16 3.18396 105.871C4.37054 105.564 3.72805 106.571 4.63101 109.342Z" fill="#A1836F"/>
<path id="Vector_60" d="M155.987 189.755C155.53 190.855 150.193 193.961 148.607 194.673C144.069 196.709 138.993 197.918 134.136 198.433L135.873 197.855V197.276L129.072 196.698C129.94 196.57 137.141 195.517 137.175 195.107C137.349 194.482 136.133 194.829 135.439 193.95C134.559 192.839 133.419 188.755 133.413 187.441C136.62 188.101 141.204 188.234 143.687 188.888C149.66 190.461 148.752 193.614 155.987 189.755Z" fill="#361A08"/>
<g id="Group_17">
<path id="Vector_61" d="M4.63132 109.342C7.94217 119.5 32.2931 131.626 40.9523 138.557C44.4715 140.389 47.9927 142.221 51.5158 144.053C62.6349 149.786 82.0427 158.087 91.1649 163.144C102.481 169.421 101.856 171.48 108.964 177.317C118.479 185.127 122.045 185.104 133.419 187.441C133.419 188.755 134.565 192.839 135.445 193.95C136.139 194.829 137.355 194.482 137.181 195.107C137.146 195.517 129.946 196.57 129.078 196.698C124.777 197.34 121.223 197.149 120.829 197.276C120.355 197.432 119.718 200.041 114.462 199.59C114.179 199.567 112.824 198.734 112.726 198.722C108.234 198.173 103.905 197.137 99.4131 196.698C95.8881 193.319 90.4298 193.736 89.8626 190.334C87.009 190.554 85.0526 189.125 88.705 188.598C89.4922 184.236 94.6784 188.72 92.4673 184.838C87.9293 183.322 68.0816 174.101 66.4204 173.846C59.0115 172.724 54.7919 177.358 53.6863 177.028C48.6622 170.149 36.1018 155.559 27.4947 162.131C28.1893 171.243 24.6585 169.293 27.2053 162.131C22.2448 161.159 23.4893 158.128 20.2595 156.057C20.3116 153.569 20.4447 152.424 19.6806 150.127C18.5114 146.621 15.5363 144.967 11.8666 146.222C11.1315 142.965 9.31397 139.997 8.39365 136.821C5.92209 128.271 7.07973 125.592 6.36778 121.924C5.54007 117.672 2.43759 115.844 2.89486 107.606C4.22036 107.606 2.50705 109.741 4.63132 109.342Z" fill="#28140D"/>
<path id="Vector_62" d="M94.1982 185.706C94.2502 185.677 95.2111 186.348 95.2111 186.429C95.1995 187.47 93.2663 186.255 94.1982 185.706Z" fill="#A1836F"/>
</g>
</g>
<path id="Vector_63" d="M120.1 156.78C122.734 157.769 126.015 158.487 128.782 159.094C129.598 159.811 128.07 160.025 129.795 160.54C136.88 160.616 146.922 164.185 153.527 162.565C155.136 162.172 152.855 162.23 153.382 160.54C158.638 160.234 163.066 158.839 168.142 157.648C165.15 164.22 141.111 162.704 146.147 166.904C140.885 166.424 140.827 171.405 139.346 171.532C129.205 167.459 119.973 161.073 109.681 157.358C109.426 155.982 109.241 156.028 110.405 155.044L120.1 156.78Z" fill="#5A2F1B"/>
<path id="Vector_64" d="M130.229 152.441C142.182 157.607 155.5 159.03 168.287 156.491C168.518 156.578 168.24 157.428 168.142 157.648C163.066 158.84 158.638 160.234 153.382 160.54C147.333 160.893 141.852 160.13 136.162 157.937C135.184 157.561 128.568 154.09 128.203 153.598C128.169 153.552 128.36 153.118 127.625 152.586L128.059 152.152C128.435 152.58 129.54 152.499 130.229 152.441Z" fill="#5A2F1B"/>
<g id="Group_18">
<path id="Vector_65" d="M198.819 132.193C197.911 134.131 197.048 133.009 196.938 133.061C195.48 133.709 190.664 136.011 190.282 137.11C187.11 136.52 186.647 137.22 188.979 139.569C186.427 140.02 189.871 139.934 187.822 140.437C188.777 140.691 188.679 141.38 188.835 141.449C189.524 141.744 196.915 141.617 187.677 142.028C187.804 145.227 194.814 144.064 195.636 145.21C189.257 145.285 182.763 144.874 176.39 145.21C175.389 145.262 170.232 145.441 170.168 146.222C179.336 150.382 188.58 152.95 196.938 158.805C200.081 161.009 202.917 164.295 206.055 166.036C206.02 166.117 206.454 167.332 206.055 167.772C205.291 169.368 204.121 170.595 202.871 171.821C201.407 168.68 190.704 169.721 185.941 169.507C186.195 175.819 187.735 176.496 178.127 175.871C169.803 175.333 150.366 167.286 146.147 166.904C141.111 162.704 165.149 164.22 168.142 157.648C168.24 157.428 168.518 156.578 168.287 156.491C155.506 159.03 142.182 157.613 130.229 152.441C136.394 151.932 142.79 152.03 148.896 150.995C150.442 150.734 160.415 148.426 159.749 146.945C160.258 146.83 165.097 144.596 169.734 144.053L184.783 135.953C189.547 135.317 194.287 133.778 198.819 132.193Z" fill="#774229"/>
<path id="Vector_66" d="M170.313 157.937C170.735 157.891 176.251 161.327 177.837 161.987C178.671 162.334 184.418 164.648 184.783 164.59C185.003 164.555 186.248 162.935 186.52 162.854C188.777 162.201 193.078 165.18 195.491 165.747C197.077 166.117 203.357 166.054 203.161 166.759C199.103 167.159 168.171 163.89 168.721 159.528C168.732 159.418 170.203 157.949 170.313 157.937Z" fill="#321E06"/>
</g>
<path id="Vector_67" d="M237.884 119.176C238.457 121.485 236.64 122.011 234.701 120.912C234.359 115.364 237.583 119.09 237.884 119.176Z" fill="#28140D"/>
<path id="Vector_68" d="M203.444 130.458C201.546 131.129 202.066 130.724 201.997 130.747C202.182 129.41 203.705 129.029 203.444 130.458Z" fill="#433B10"/>
<g id="Group_19">
<path id="Vector_69" d="M240.489 137.978C232.385 139.315 224.722 143.179 216.612 144.92C209.626 145.875 202.651 145.123 195.63 145.21C194.808 144.064 187.799 145.227 187.671 142.028C196.909 141.617 189.518 141.744 188.829 141.449C188.673 141.38 188.771 140.691 187.816 140.437C189.865 139.934 186.421 140.02 188.974 139.569C186.641 137.22 187.104 136.52 190.276 137.11C190.658 136.011 195.474 133.709 196.932 133.061C197.042 133.009 197.905 134.131 198.814 132.193C199.705 131.881 201.112 131.053 201.997 130.747C202.067 130.724 201.546 131.129 203.444 130.458C206.489 129.376 209.73 128.531 212.705 127.276C212.705 127.472 212.63 127.791 212.85 127.854C213.307 127.987 224.131 128.635 219.796 127.276C218.493 126.865 216.404 127.073 215.021 126.408C217.174 125.436 221.058 123.128 223.124 121.78C226.099 123.99 228.825 126.998 231.806 123.949C230.585 123.654 229.306 122.763 228.333 122.358C226.724 119.477 229.809 122.104 230.793 121.78C233.977 118.274 234.075 120.559 234.7 120.912C236.639 122.011 238.457 121.485 237.884 119.176C238.81 119.437 239.95 119.148 240.055 119.176C242.254 119.79 242.868 122.671 243.383 115.127C243.915 122.086 243.244 131.493 240.489 137.978Z" fill="#774229"/>
<path id="Vector_70" d="M228.333 122.358C229.306 122.763 230.585 123.654 231.806 123.949C228.825 126.998 226.099 123.99 223.124 121.78C223.593 121.473 224.125 121.219 224.571 120.912C225.567 121.71 227.344 121.948 228.333 122.358Z" fill="#321E06"/>
<path id="Vector_71" d="M215.021 126.408C216.404 127.073 218.493 126.865 219.796 127.276C224.131 128.635 213.307 127.987 212.85 127.854C212.63 127.791 212.705 127.472 212.705 127.276C213.828 126.801 214.911 126.46 215.021 126.408Z" fill="#774229"/>
<path id="Vector_72" d="M228.188 130.458C230.29 129.694 230.4 132.552 228.478 131.904C228.125 131.788 227.517 130.7 228.188 130.458Z" fill="#4A1E09"/>
<path id="Vector_73" d="M223.558 128.722C223.766 128.629 224.86 128.705 224.86 128.867C224.86 129.196 222.939 128.994 223.558 128.722Z" fill="#5A2F1B"/>
</g>
<path id="Vector_74" d="M128.203 153.598C128.568 154.09 135.184 157.561 136.162 157.937C141.852 160.13 147.328 160.893 153.382 160.54C152.855 162.23 155.136 162.172 153.527 162.565C146.922 164.185 136.88 160.616 129.795 160.54C128.07 160.025 129.598 159.811 128.782 159.094C125.72 156.398 121.831 154.825 118.653 152.297C121.686 153.558 124.939 153.916 128.203 153.598Z" fill="#5A2F1B"/>
<path id="Vector_75" d="M56.1458 93.1432L45.8718 89.6721C45.0209 88.9605 46.1554 84.8357 47.1741 84.1762C49.4894 86.9531 53.0144 89.5159 55.7117 91.9862C56.3195 92.5416 56.551 92.6052 56.1458 93.1432Z" fill="#774229"/>
</g>
<g id="Group_20">
<path id="Vector_76" d="M93.7635 115.416C94.2902 116.052 94.8979 116.897 95.4999 117.441C94.9616 120.05 88.9882 113.889 88.8435 116.284C87.4312 111.829 88.1663 122.156 86.5282 121.635C87.5701 128.531 85.7294 123.371 84.647 120.623L83.2 123.805C83.0495 119.83 81.7356 120.281 82.4765 123.949C81.1799 124.343 82.5575 121.485 81.0294 121.635C82.0018 116.209 79.0209 121.635 78.5694 125.251C79.073 122.538 79.5476 110.047 77.4118 118.598L76.3989 116.284C76.503 113.785 76.3178 111.262 76.3989 108.763C82.1465 109.579 88.7335 112.535 93.7635 115.416Z" fill="#5A2F1B"/>
<path id="Vector_77" d="M83.4892 116.862C82.8756 120.16 81.0755 120.253 83.3445 117.007L83.4892 116.862Z" fill="#A48558"/>
</g>
<g id="Group_21">
<path id="Vector_78" d="M184.927 110.499C184.927 110.603 184.464 110.319 184.638 112.524C184.453 112.581 184.244 112.946 182.323 113.391C181.703 112.471 182.641 105.066 184.638 108.329C184.829 108.636 184.939 109.955 184.927 110.499Z" fill="#5A2F1B"/>
<path id="Vector_79" d="M189.558 110.788C188.227 111.378 186.785 112.35 185.361 112.813C184.638 113.044 184.673 112.512 184.638 112.523C184.464 110.319 184.927 110.603 184.927 110.499C187.845 111.864 187.902 108.688 189.558 110.788Z" fill="#9C9844"/>
<path id="Vector_80" d="M121.547 49.4711C121.633 49.4711 121.188 49.9744 123.138 50.0496C124.927 50.119 126.947 49.3264 128.927 49.4711C129.054 49.4826 128.863 50.1248 131.097 50.3388C131.161 51.5711 134.57 54.8744 135.872 55.8347C139.125 58.2356 145.811 60.5959 149.619 62.7769C146.662 65.386 159.378 68.8571 161.34 68.5621L161.775 68.996C161.213 69.7423 160.912 70.5811 160.617 71.4547C159.778 71.2406 159.992 72.7332 159.315 72.6117C159.222 72.5944 159.291 71.8828 157.868 71.4547C155.541 70.7547 151.9 70.4654 150.632 70.0084C147.078 68.7299 139.901 61.7761 135.004 61.9092C130.46 57.9579 122.629 55.424 120.389 49.1818C121.107 49.0314 121.327 49.4711 121.547 49.4711Z" fill="#9E603F"/>
<path id="Vector_81" d="M199.977 74.6365C201.863 75.8514 203.502 77.3498 205.041 78.9754C206.864 78.6514 208.526 78.3332 210.395 78.6861C213.174 81.6424 211.64 80.0514 210.54 81.0002C209.996 81.4746 210.332 82.7357 207.356 82.7357C203.988 82.7357 186.837 76.5167 181.888 74.9258C174.46 75.0222 167.032 75.1186 159.604 75.215C159.378 75.0646 159.442 74.7002 159.459 74.3473C164.558 71.1249 162.672 68.8861 168.865 72.3225C180.563 67.5613 189.268 67.7233 199.977 74.6365Z" fill="#B07854"/>
<path id="Vector_82" d="M93.7631 115.416C88.7332 112.535 82.1462 109.579 76.3985 108.763C75.0904 108.578 75.0846 108.775 74.9515 108.763C73.024 108.619 71.1023 108.381 69.1633 108.474C69.0475 107.467 68.7349 106.235 68.295 105.292C68.3877 105.084 68.1388 104.586 68.4397 104.424C71.276 104.586 74.5521 105.396 74.0832 103.846C77.423 105.847 86.169 108.578 90.4349 110.209C91.1006 110.695 92.7444 114.178 93.7631 115.416Z" fill="#885135"/>
<g id="Group_22">
<path id="Vector_83" d="M120.389 49.1818C122.629 55.424 130.46 57.9579 135.004 61.9092C139.901 61.7761 147.078 68.7299 150.632 70.0084C151.9 70.4654 155.541 70.7547 157.867 71.4547C159.291 71.8828 159.222 72.5944 159.315 72.6117C159.992 72.7332 159.778 71.2406 160.617 71.4547C160.351 72.2473 159.488 73.6357 159.459 74.3473C159.442 74.7002 159.378 75.0646 159.604 75.215C167.032 75.1186 174.46 75.0222 181.889 74.9258C186.837 76.5167 203.982 82.7358 207.357 82.7358C210.332 82.7358 209.996 81.4746 210.54 81.0002C211.64 80.0514 213.174 81.6424 210.395 78.6861C211.599 78.9175 211.779 79.039 212.711 79.8432C215.906 83.0424 218.539 89.3019 221.393 92.2813C220.507 93.5366 219.136 94.3061 217.92 95.1738C215.929 96.5912 213.492 97.783 213.868 98.6449C212.016 99.4607 208.3 100.195 207.646 100.67C205.875 101.948 208.242 102.932 202.437 104.43C200.665 104.569 201.534 98.8764 200.411 98.9342C198.883 104.042 201.105 104.089 197.661 105.298C196.967 105.541 197.505 103.892 196.214 106.455C196.151 106.582 196.093 107.855 195.78 108.19C195.549 108.439 190.467 110.395 189.558 110.794C187.902 108.694 187.845 111.87 184.927 110.505C184.939 109.961 184.829 108.642 184.638 108.335C182.641 105.072 181.703 112.477 182.323 113.397C180.742 113.762 181.645 114.415 180.007 113.397C179.892 113.328 179.718 111.864 177.837 112.819C176.685 113.403 179.012 113.536 178.271 114.554C176.17 115.329 173.409 115.867 171.18 116.29C166.88 118.708 170.416 120.663 164.669 120.918C164.634 120.918 164.698 120.681 164.234 120.339C161.861 123.238 162.892 123.371 159.17 124.389C157.717 124.788 153.092 125.505 151.79 125.257C150.557 125.025 149.689 123.446 148.317 123.81C147.732 124.1 147.865 126.634 147.883 127.281C146.725 127.667 145.568 128.053 144.41 128.439C139.49 122.995 140.491 128.612 139.924 129.017C139.583 129.26 131.855 129.572 131.531 129.306C130.321 128.317 134.408 122.908 124.585 129.596C123.306 125.702 120.852 130.591 119.665 124.678C118.172 124.003 116.677 123.328 115.179 122.653C115.353 121.919 115.37 119.859 115.758 118.459C115.793 118.343 117.628 117.221 116.192 116.579C113.976 115.59 115.324 118.153 115.179 118.748C115.139 118.905 114.334 120.102 114.022 121.786C112.002 122.034 112.581 120.004 111.417 120.05C111.215 120.056 110.833 120.397 110.549 120.484C109.785 126.587 108.43 120.172 107.076 123.81C106.897 124.285 107.394 125.471 106.787 125.546C104.859 121.276 106.81 114.074 104.327 114.843C103.354 115.144 103.8 121.294 104.182 122.364C103.291 124.794 104.315 121.786 102.156 122.943C101.855 122.462 101.786 121.872 101.577 121.352L100.13 120.339C100.055 120.299 99.916 120.38 99.8407 120.339C98.9204 119.333 96.1189 118.014 95.4996 117.447C94.8976 116.903 94.2899 116.058 93.7631 115.422C92.7444 114.184 91.1006 110.701 90.4349 110.215C86.169 108.584 77.423 105.853 74.0832 103.852C72.0342 102.625 69.3369 99.6053 69.0186 99.5127C67.4152 99.0383 65.0421 101.161 62.9409 98.0664C58.3046 98.1011 59.6417 94.3176 56.1398 93.149C56.545 92.611 56.3135 92.5474 55.7057 91.992C53.0084 89.5217 49.4834 86.9589 47.1681 84.182C43.9672 80.3465 45.3159 79.7911 43.8399 78.6861C40.3496 77.6101 37.2008 74.8564 33.8552 73.1902C40.3149 67.5092 46.1552 69.7076 45.5763 62.1984C62.2058 55.2447 84.4152 54.0124 102.445 52.0744C103.435 52.5372 103.997 52.8843 104.471 51.7851C109.71 50.5124 114.965 49.2455 120.389 49.1818Z" fill="#B07854"/>
<g id="Group_23">
<path id="Vector_84" d="M102.156 122.937C102.197 123.006 102.116 123.157 102.156 123.226C100.784 123.041 100.975 123.475 100.42 124.383C100.298 123.029 99.9741 121.716 100.13 120.333L101.577 121.346C101.786 121.867 101.855 122.451 102.156 122.937Z" fill="#774229"/>
<g id="Group_24">
<path id="Vector_85" d="M106.787 125.54C107.047 126.263 104.258 122.578 104.182 122.358C103.8 121.288 103.355 115.138 104.327 114.838C106.81 114.068 104.86 121.271 106.787 125.54Z" fill="#5A2F1B"/>
<path id="Vector_86" d="M115.18 122.648C115.087 123.035 114.607 125.268 114.167 125.251C113.27 124.32 113.831 122.827 114.022 121.78C114.335 120.096 115.139 118.899 115.18 118.743C115.324 118.147 113.976 115.584 116.193 116.573C117.628 117.215 115.793 118.338 115.758 118.453C115.371 119.853 115.353 121.913 115.18 122.648Z" fill="#492C17"/>
<path id="Vector_87" d="M180.008 113.391C179.429 114.329 179.116 114.236 178.271 114.548C179.012 113.53 176.685 113.397 177.837 112.813C179.718 111.858 179.892 113.322 180.008 113.391Z" fill="#5A2F1B"/>
<path id="Vector_88" d="M104.471 51.7852C103.997 52.8843 103.435 52.5372 102.446 52.0744L104.471 51.7852Z" fill="#553F16"/>
<path id="Vector_89" d="M114.167 111.656C116.14 110.655 115.261 115.914 114.456 115.995C112.905 116.151 113.57 111.957 114.167 111.656Z" fill="#361A08"/>
<path id="Vector_90" d="M54.5541 87.0746C56.5452 86.6754 55.3239 90.5804 53.9753 89.9672C53.1533 89.5912 53.7437 87.2366 54.5541 87.0746Z" fill="#28140D"/>
<path id="Vector_91" d="M102.591 107.606C103.754 107.502 103.933 109.695 102.88 109.92C101.294 110.262 101.52 107.704 102.591 107.606Z" fill="#361A08"/>
<path id="Vector_92" d="M184.783 102.399C186.016 101.861 186.612 103.736 185.651 104.135C184.557 104.592 183.862 102.799 184.783 102.399Z" fill="#361A08"/>
<path id="Vector_93" d="M76.8331 81.0002C78.7084 80.4679 77.4582 83.2217 76.5436 83.025C75.7275 82.8457 76.3468 81.139 76.8331 81.0002Z" fill="#350D00"/>
<path id="Vector_94" d="M115.035 104.714C116.06 104.28 116.824 106.206 115.614 106.449C114.41 106.692 114.271 105.038 115.035 104.714Z" fill="#350D00"/>
<path id="Vector_95" d="M128.059 123.515C129.263 123.272 129.401 124.927 128.637 125.251C127.613 125.685 126.849 123.758 128.059 123.515Z" fill="#361A08"/>
<path id="Vector_96" d="M56.0013 79.2646C57.321 78.9927 57.3384 80.9134 56.2907 81.0002C55.2662 81.0869 55.0231 79.4671 56.0013 79.2646Z" fill="#28140D"/>
<path id="Vector_97" d="M176.1 80.7109C177.565 80.1382 176.974 82.406 176.1 82.1572C175.551 82.001 175.487 80.9481 176.1 80.7109Z" fill="#28140D"/>
<path id="Vector_98" d="M152.658 92.854C153.804 92.854 153.399 94.3292 152.658 94.3003C152.143 94.2772 151.547 92.854 152.658 92.854Z" fill="#350D00"/>
<path id="Vector_99" d="M102.301 80.7109C103.146 80.4622 103.649 81.544 103.169 81.868C102.405 82.3829 101.247 81.0176 102.301 80.7109Z" fill="#350D00"/>
<path id="Vector_100" d="M134.136 61.9092C135.438 61.7414 134.171 63.7547 133.557 63.3555C133.036 63.0142 133.875 61.9439 134.136 61.9092Z" fill="#9E603F"/>
<path id="Vector_101" d="M88.6988 94.011C89.0172 94.011 89.8507 95.2085 88.9882 95.4573C87.7843 95.8044 88.0332 94.0052 88.6988 94.011Z" fill="#350D00"/>
<path id="Vector_102" d="M154.974 111.077C155.946 110.875 155.871 111.986 155.552 112.234C154.945 112.714 154.03 111.274 154.974 111.077Z" fill="#4A1E09"/>
<path id="Vector_103" d="M125.164 94.5896C125.732 94.4565 126.189 95.4573 125.743 95.7466C124.817 96.354 124.279 94.8036 125.164 94.5896Z" fill="#4A1E09"/>
<path id="Vector_104" d="M62.3678 71.4547C63.3981 71.1943 63.6644 72.4497 62.9467 72.6117C62.4257 72.7332 61.5691 71.6571 62.3678 71.4547Z" fill="#4A1E09"/>
<path id="Vector_105" d="M95.3552 73.4795C95.5925 73.4795 96.1424 74.3299 95.4999 74.7811C94.869 75.2208 94.7185 73.4795 95.3552 73.4795Z" fill="#774229"/>
</g>
</g>
</g>
<path id="Vector_106" d="M143.831 51.7852C145.898 52.705 143.316 53.2488 143.252 53.3761C142.39 55.1521 152.82 59.3926 153.671 61.3307C153.266 61.4174 149.781 62.6323 149.619 62.777C145.811 60.596 139.125 58.2356 135.872 55.8348C134.57 54.8744 131.161 51.5711 131.097 50.3389C133.997 50.6166 141.151 50.5934 143.831 51.7852Z" fill="#9E603F"/>
<path id="Vector_107" d="M144.41 50.9173C144.641 51.3685 145.706 51.2586 146.146 51.4958C146.193 51.519 146.974 52.0396 147.015 52.0743C147.489 52.4677 154.157 60.1678 155.118 61.3306C154.661 61.3884 154.082 61.2438 153.671 61.3306C152.82 59.3926 142.39 55.152 143.252 53.376C143.316 53.2487 145.897 52.7049 143.831 51.7851C143.142 50.628 143.796 51.1024 144.41 50.9173Z" fill="#774229"/>
<path id="Vector_108" d="M74.9513 108.763C75.2002 110.823 74.6677 112.61 74.6619 112.813L69.4525 111.077C69.3483 110.198 69.2615 109.347 69.1631 108.474C71.1021 108.381 73.0238 108.619 74.9513 108.763Z" fill="#5A2F1B"/>
</g>
</g>
<g id="Group_25">
<path id="Vector_109" d="M241.935 99.507C241.958 100.901 241.686 102.747 242.224 103.99C242.462 102.857 246.212 88.7639 247 89.0937C246.757 92.692 245.495 96.0764 244.54 99.507C243.886 101.867 242.427 104.523 241.935 107.028C241.264 107.132 241.385 106.756 241.356 106.738C240.847 103.933 238.995 95.064 239.33 100.375C235.614 101.763 237.362 96.1169 237.015 93.8664C236.743 92.0962 235.29 90.7482 235.857 90.3953C232.037 86.5193 229.832 80.6242 226.596 77.2341C226.55 76.6614 226.66 76.0655 226.596 75.4985C230.44 72.1605 229.085 74.5729 229.49 75.3539C229.739 75.8341 230.289 75.0242 230.503 75.2093C230.839 75.4985 230.445 76.1233 230.793 76.3663C231.424 76.806 230.816 72.982 234.41 79.6928C233.664 85.9408 234.532 85.3507 235.568 79.4035C237.958 79.8895 236.963 84.4655 237.883 86.0565C238.537 87.1961 238.728 85.0094 239.186 85.0441C240.28 85.1251 238.699 91.9978 238.462 92.9987C241.802 88.9722 239.95 89.6317 240.054 94.8788C243.724 91.2458 239.411 96.5507 240.922 96.9036C242.722 95.0177 241.889 96.2383 241.935 99.507Z" fill="#A3A846"/>
<path id="Vector_110" d="M11.576 73.4795C10.4415 74.7638 4.9369 81.868 6.8007 83.3143C13.8507 77.344 7.03801 83.7308 6.9454 86.0622C6.91646 86.8259 9.53852 93.8433 10.4183 95.1738C10.2042 95.9375 9.94948 97.4995 9.83951 98.3557C8.83236 98.4077 9.01179 97.5342 8.97127 97.4879C9.52115 95.2606 5.2784 91.9342 4.34071 89.9672C2.98048 87.1151 3.49563 85.9812 4.0513 83.025C4.07445 82.9151 4.21916 83.4705 4.91953 81.0002C5.24946 79.8374 5.39995 78.5878 5.49835 77.3845H7.52422C7.68629 77.1531 5.28998 76.3836 9.5501 72.901C9.85108 72.6522 10.3257 72.496 10.4183 72.0332C10.4588 72.1142 11.7265 72.7506 11.576 73.4795Z" fill="#606121"/>
<path id="Vector_111" d="M20.2583 64.8017C20.102 65.2993 19.6969 65.8199 19.3901 66.248C18.163 67.972 12.8494 72.039 11.576 73.4795C11.7265 72.7506 10.4589 72.1142 10.4184 72.0332C10.0074 71.2117 8.74558 64.0612 7.23486 61.4753L7.52427 60.7521C8.82469 64.1268 10.127 67.5015 11.4313 70.8762C13.434 68.7299 14.1633 67.9026 16.7854 66.9712C17.7983 63.0315 18.1167 59.0282 20.2583 64.8017Z" fill="#7A7C2D"/>
<path id="Vector_112" d="M4.34087 89.9672C5.27856 91.9342 9.52131 95.2606 8.97143 97.4879C8.3 96.7185 6.88189 95.6598 6.07733 94.8846C5.68952 94.5086 5.07018 94.4623 4.63028 94.0168C3.70995 93.0854 2.59862 91.5986 1.73618 90.5457C1.54517 90.3143 0.607478 89.6027 0.723242 89.0994L4.34087 89.9672Z" fill="#7A7C2D"/>
<path id="Vector_113" d="M4.63009 94.011C5.06999 94.4565 5.68933 94.5028 6.07714 94.8788C5.63145 94.8325 5.79352 95.816 5.78773 96.9036L4.05127 96.6144C3.95287 95.9202 4.19019 94.8383 4.05127 94.3003L4.63009 94.011Z" fill="#A1836F"/>
<path id="Vector_114" d="M239.909 105.871C240.089 106.264 240.187 106.143 240.199 106.16C237.287 110.846 229.068 117.829 224.57 120.912C224.125 121.219 223.592 121.473 223.123 121.78C221.057 123.128 217.173 125.436 215.02 126.408C214.91 126.46 213.828 126.801 212.705 127.276C209.73 128.531 206.494 129.376 203.444 130.458C203.704 129.029 202.182 129.41 201.996 130.747C201.111 131.053 199.704 131.881 198.813 132.193C194.281 133.778 189.54 135.317 184.777 135.953L169.727 144.053C165.091 144.597 160.252 146.83 159.743 146.945C152.108 148.687 140.827 149.525 132.972 149.549C123.196 149.572 113.292 148.137 103.742 147.235C86.3482 141.82 69.082 136.133 51.9373 129.879C46.7916 126.975 33.1083 119.992 29.3633 116.862C27.4127 115.231 24.8948 109.822 15.3269 106.738C15.1706 105.5 15.6163 105.124 15.6163 105.003C15.6279 96.0185 15.9752 103.58 14.6034 103.557C12.9827 102.174 13.2084 99.6111 11.5646 100.085C11.4951 97.245 12.2418 97.1293 12.7222 95.1681C18.7651 98.5987 22.7416 104.615 28.2057 108.763C33.2877 112.628 48.5859 120.623 55.4102 125.251C72.5202 131.424 89.5433 138.007 107.504 141.449C119.08 142.277 130.622 142.496 142.233 142.317C152.675 139.98 162.729 136.272 172.621 132.193C187.277 129.023 200.862 122.856 215.165 118.598C219.749 115.867 235.62 110.395 238.317 107.895C239.053 107.213 239.209 105.876 239.909 105.871Z" fill="#7A7C2D"/>
<path id="Vector_115" d="M159.748 146.945C160.414 148.426 150.447 150.735 148.896 150.995C142.789 152.03 136.393 151.932 130.229 152.441C129.54 152.499 128.434 152.58 128.058 152.152L127.624 152.586C128.359 153.118 128.168 153.552 128.203 153.598C124.938 153.916 121.685 153.558 118.652 152.297C121.83 154.825 125.714 156.398 128.782 159.094C126.015 158.487 122.733 157.769 120.099 156.78C113.292 154.223 108.818 148.744 113.443 154.611C107.979 155.49 105.652 151.151 105.195 151.284C106.451 157.26 104.043 150.133 102.735 151.429C102.532 151.625 102.098 156.277 100.853 150.127C100.512 150.116 101.085 151.753 100.13 152.441L99.8405 150.85C98.3992 152.337 98.7928 150.387 98.5382 147.524C97.5599 147.073 97.913 150.046 97.8146 152.441C96.5702 151.614 97.5889 149.919 97.3805 149.838L95.9335 151.573C94.6716 147.726 95.783 152.366 94.4864 151.573C93.5719 147.576 94.1796 151.047 92.4605 151.863C92.42 151.88 92.229 151.498 92.0264 151.573C94.3186 146.049 84.9243 156.207 90.4347 146.077C89.6533 145.655 88.6172 148.837 87.1065 147.958C87.4653 144.388 86.1456 150.752 85.2253 146.367C84.0445 150.249 83.6972 146.992 83.1994 146.945C82.8058 146.911 81.8566 148.727 81.7524 148.681C81.2256 148.426 82.4007 147.026 80.45 147.958C80.7915 144.614 78.1058 150.839 80.0159 144.053C76.9829 147.605 76.7571 143.931 76.543 143.763C76.4562 143.694 75.2059 145.412 74.8065 145.21C75.4432 142.925 74.0251 141.756 73.6489 144.342C72.1324 142.23 71.0789 141.021 71.9124 144.631C65.6669 136.752 70.7316 145.227 67.716 143.04C67.606 142.959 66.842 140.981 66.703 140.582C66.8593 143.746 63.2591 142.676 64.3878 140.003C61.048 140.963 61.6847 140.136 63.5195 137.4C62.003 138.401 62.4776 136.937 60.336 138.557C59.9771 137.319 58.4838 137.238 58.0207 138.846C57.2104 131.1 57.1004 139.986 55.8502 134.652C54.2584 138.21 54.3742 130.001 53.969 136.532C53.2937 135.568 52.6184 134.604 51.9431 133.639C50.6987 140.576 51.318 130.753 50.7855 130.747C49.9751 138.788 49.3442 127.12 49.049 132.772C47.5151 129.873 47.4167 135.549 45.8655 133.35C45.7497 133.188 45.1304 130.267 44.7079 129.59C44.3664 129.59 44.6268 133.385 43.2608 130.168C42.6241 132.419 40.2857 128.201 41.8138 133.061C38.8444 129.821 39.9557 131.759 39.4985 131.904C39.3422 131.956 39.1454 130.735 37.4726 129.301C36.3729 128.358 32.9347 126.24 31.2503 124.962C33.8666 120.744 28.8713 123.313 28.935 121.635C28.9466 121.352 30.903 117.562 26.0409 120.912C25.2248 118.662 29.4444 117.933 23.8703 116.862C23.5057 116.793 19.8707 118.286 24.3045 114.982C20.0212 115.208 22.1107 114.89 21.4103 113.536C21.011 112.767 20.6579 114.814 20.2527 112.524C20.2411 112.46 20.6984 111.887 20.2527 111.222C19.9922 110.84 14.7713 108.324 15.3327 106.738C24.9006 109.822 27.4185 115.231 29.3691 116.862C33.1141 119.992 46.7974 126.975 51.9431 129.879C69.0878 136.133 86.354 141.82 103.748 147.235C113.298 148.137 123.196 149.572 132.978 149.549C140.833 149.525 152.114 148.687 159.748 146.945Z" fill="#606121"/>
<path id="Vector_116" d="M57.0136 49.7604C56.4058 50.2348 56.157 50.9406 57.0136 51.2067C56.7242 52.0108 55.9544 52.2017 57.0136 54.3885C53.6044 56.2918 49.6626 57.3158 46.5948 59.8844C42.4968 61.3307 38.3968 62.777 34.2949 64.2233C32.2864 62.7191 25.6242 63.6274 24.7444 63.934C24.2234 64.1134 22.0992 67.3068 21.7056 65.6696C21.8155 65.525 23.3205 62.7596 23.442 62.4877C23.5404 62.2563 22.3538 59.6414 25.902 59.0166C26.5561 58.9009 27.76 58.9414 28.362 59.3059C28.6514 59.4795 28.8019 60.8853 29.3749 60.7522C29.5428 60.7117 30.4863 58.0216 30.6773 57.5704C33.5887 57.1075 32.1475 50.7554 34.8737 56.4133C36.3555 52.4968 35.8635 55.696 36.4655 56.5579C37.8026 56.1067 36.6507 51.3455 38.4914 53.0869L38.9255 47.7356L39.3596 52.7976C39.8882 49.0874 40.4188 45.3752 40.9513 41.6612C41.889 41.6669 40.1005 54.1918 39.7937 55.2563C44.3606 54.6778 40.5346 52.6819 42.6878 47.7356L43.1219 54.2439C46.0797 52.5604 43.7528 43.6628 45.4372 52.2191L46.016 51.9298C46.7801 50.8596 42.4331 38.7223 46.7395 50.3389C46.836 48.1213 46.9325 45.9036 47.029 43.686C47.6888 43.2752 48.4123 51.8893 48.7654 52.653C49.9231 51.4207 48.4297 48.1753 49.9231 50.3389C51.1328 50.1596 49.8883 39.2314 52.0936 49.0372C53.8648 38.2306 51.0691 54.2555 55.856 48.748C54.7388 39.4917 54.2526 27.0883 56.4348 45.2769C56.6432 47.0356 55.9428 48.1579 57.0136 49.7604Z" fill="#878A34"/>
<path id="Vector_117" d="M157.144 42.5289C159.274 43.9405 160.692 45.3636 163.655 45.1322C164.379 45.6702 163.823 45.6413 163.8 46C163.783 46.3066 163.071 47.9959 162.643 48.3141C162.452 48.3372 162.203 48.2736 162.064 48.3141C164.547 46.6711 150.603 43.8306 149.474 43.6859C142.436 42.8008 126.235 43.8768 124.875 43.6859C124.649 43.6512 124.857 43.0611 124.44 43.1074C125.818 41.2099 126.657 38.8611 127.624 36.7437C127.884 36.171 127.896 35.9165 127.913 35.876L131.676 36.4545C130.356 42.7314 132.764 36.2636 134.28 38.3347L133.557 39.9256C133.985 39.8388 135.612 39.0347 135.727 39.0578C135.82 39.0809 135.924 39.0347 136.017 39.0578C136.063 39.0694 135.884 39.8214 136.162 39.9256C137.516 40.4405 137.088 38.9537 137.174 38.9132C137.701 38.6818 138.014 40.1338 139.49 37.3223C141.55 37.9066 142.696 37.5247 144.265 38.19C145.695 33.3999 144.635 39.5206 146.58 38.19C147.275 37.7157 145.782 29.5644 147.304 36.5991C148.068 37.8198 148.068 34.1462 148.896 38.7685L149.909 38.6239C149.92 35.7371 149.972 38.809 150.921 39.6363C151.188 39.8735 156.733 42.6967 157.144 42.5289Z" fill="#A3A846"/>
<path id="Vector_118" d="M104.471 30.38C105.224 33.2784 102.677 44.6867 106.352 36.1652C109.964 35.3553 106.647 38.7049 103.313 43.6859C102.613 44.733 101.797 45.5892 101.432 46.8677C101.062 46.0925 100.379 45.6991 99.8405 45.1322C98.897 44.1429 97.3573 42.2454 96.3676 41.0826C96.0376 40.695 95.5746 39.6305 95.2099 39.2024C94.961 38.9074 94.77 39.5032 94.6311 39.347C94.5558 39.2603 94.7179 38.728 94.6311 38.6239C94.4574 38.4156 93.5082 38.485 93.4734 38.0454C93.2651 35.2743 97.3921 41.1751 97.6699 39.347C99.7421 42.3322 97.4268 37.6404 99.2617 37.9007C101.889 46.7231 102.023 40.1165 100.998 36.3098C100.917 36.0032 100.338 36.4197 100.13 35.8759C99.9447 35.4016 100.089 34.1635 99.8405 33.5619L100.709 33.8511C101.16 34.8462 102.231 37.1718 102.735 36.3098C102.248 28.3263 100.396 18.3585 103.603 32.8387C103.904 32.8966 104.286 30.9238 104.471 30.38Z" fill="#7A7C2D"/>
<path id="Vector_119" d="M75.8194 45.4215C72.9948 46.5554 70.6158 49.5637 67.5712 50.9174C67.0214 50.8017 66.0489 46.1157 67.4265 46C67.6233 46.405 67.7044 46.2719 67.7159 46.2893C68.0748 47.0298 68.6941 47.4637 68.7289 48.6033C70.1065 43.0554 70.5348 46.4455 70.7547 46.5785C70.8705 46.6479 71.0847 45.8496 71.7677 45.1322C72.086 45.9017 72.3233 45.1438 72.3465 45.1322C74.7312 43.8016 73.6546 42.4884 73.7936 42.095C74.465 40.157 76.0452 42.0719 75.3853 43.9752C76.1783 43.5124 78.0189 39.7752 77.8453 42.9628C77.8048 43.7264 76.1204 44.6405 75.8194 45.4215Z" fill="#7A7C2D"/>
<path id="Vector_120" d="M135.727 39.0578C135.611 39.0347 133.985 39.8388 133.557 39.9256L134.28 38.3346C132.764 36.2636 130.356 42.7314 131.675 36.4545C135.814 32.104 136.682 22.3213 134.57 34.8636L135.004 35.2974C137.626 32.6363 134.442 36.4198 134.57 36.5991C135.166 37.4264 137.498 34.4412 135.727 39.0578Z" fill="#A3A846"/>
<path id="Vector_121" d="M57.3029 50.0496C57.2508 50.3967 57.1293 50.8885 57.0135 51.2067C56.1569 50.9405 56.4058 50.2348 57.0135 49.7604C57.0367 49.8009 56.9498 50.0786 57.3029 50.0496Z" fill="#C3C77E"/>
<path id="Vector_122" d="M8.97159 97.4822C9.01211 97.5284 8.83267 98.402 9.83982 98.3499C9.72984 99.2003 9.14524 99.1598 9.261 99.9408C9.29573 100.178 11.0669 102.828 11.5763 101.532C11.6978 102.307 13.6137 106.322 14.3257 107.317C14.8061 106.125 14.4183 104.679 15.628 105.003C15.628 105.124 15.1823 105.5 15.3386 106.738C14.7772 108.324 19.9981 110.84 20.2586 111.222C20.7043 111.887 20.247 112.46 20.2586 112.524C16.5599 114.01 14.0999 111.071 13.7469 111.077C13.0002 111.089 13.6022 112.223 12.5892 112.234C12.1898 112.234 6.4132 107.201 6.65631 106.883C6.96887 106.478 8.65324 106.999 8.97159 106.594C9.15102 106.368 6.03118 103.389 5.78808 102.255C5.63758 101.561 5.78808 98.3557 5.78808 96.9036C5.78808 95.816 5.6318 94.8325 6.07749 94.8788C6.88205 95.654 8.30016 96.7127 8.97159 97.4822Z" fill="#606121"/>
<path id="Vector_123" d="M31.256 124.962C30.1042 124.082 26.3766 121.82 26.0466 120.912C30.9087 117.562 28.9523 121.352 28.9407 121.635C28.8771 123.313 33.8723 120.744 31.256 124.962Z" fill="#42320F"/>
<path id="Vector_124" d="M241.356 106.738C241.032 106.547 240.262 106.247 240.198 106.16C240.187 106.143 240.088 106.264 239.909 105.871C239.486 104.957 239.417 101.705 239.33 100.375C238.994 95.0639 240.847 103.933 241.356 106.738Z" fill="#EBF3D2"/>
<path id="Vector_125" d="M12.7339 95.1681C12.2534 97.1293 11.5068 97.245 11.5762 100.085C11.5878 100.548 11.5068 101.109 11.5762 101.532C11.0669 102.828 9.29567 100.178 9.26094 99.9408C9.14518 99.1598 9.72979 99.2003 9.83976 98.3499C9.94974 97.4937 10.2044 95.9317 10.4186 95.1681C10.6848 94.2193 14.7019 84.0606 15.0491 87.5027C15.0897 87.9019 13.0464 93.8838 12.7339 95.1681Z" fill="#514A27"/>
<path id="Vector_126" d="M100.13 152.441C99.5049 152.892 98.3241 152.782 97.8147 152.441C97.9131 150.046 97.56 147.073 98.5382 147.524C98.7929 150.387 98.3993 152.337 99.8406 150.85L100.13 152.441Z" fill="#514A27"/>
<path id="Vector_127" d="M15.6278 105.003C14.4181 104.679 14.8059 106.125 14.3255 107.317C13.6135 106.322 11.6976 102.307 11.5761 101.532C11.5066 101.109 11.5876 100.548 11.5761 100.085C13.2199 99.6111 12.9942 102.174 14.6149 103.557C15.9867 103.58 15.6394 96.0185 15.6278 105.003Z" fill="#606121"/>
<path id="Vector_128" d="M162.064 48.3141C162.203 48.2736 162.451 48.3372 162.642 48.3141C161.844 49.2802 162.949 49.7199 163.8 51.2067C159.505 51.5017 154.551 48.667 150.053 48.0248C145.625 47.3943 133.314 47.7819 128.637 48.3141C128.272 48.3546 125.714 49.6736 121.546 49.4711C121.326 49.4711 121.106 49.0315 120.389 49.1819C114.965 49.2455 109.709 50.5125 104.471 51.7852L102.445 52.0744C84.4207 54.0125 62.2055 55.2447 45.576 62.1985C46.1548 69.7076 40.3145 67.5093 33.8549 73.1903C33.8665 73.1093 33.1545 73.3118 34.1443 71.5994C34.8968 70.3035 42.9077 64.0902 45.1419 63.5001C44.9625 61.8572 45.5702 61.0125 46.589 59.8844C49.6567 57.3158 53.5985 56.2918 57.0077 54.3885C66.4136 49.1298 61.2968 46.8852 65.1112 46.8678C64.5092 49.7315 63.56 52.3174 62.3618 54.967C75.9699 50.6282 90.2494 50.3852 104.326 48.8926C106.555 48.6554 107.07 48.0422 107.22 48.0248C119.659 46.7752 137.771 44.5537 149.764 46C152.53 46.3356 160.229 48.8637 162.064 48.3141Z" fill="#7A7C2D"/>
<path id="Vector_129" d="M85.9489 45.7107C81.7351 46.0868 82.1171 45.5372 83.3442 41.6611C83.7957 41.3314 83.923 40.5272 84.6466 40.5041L84.936 42.8182C88.1658 38.8206 88.05 41.7248 85.9489 45.7107Z" fill="#7A7C2D"/>
<g id="Group_26">
<path id="Vector_130" d="M67.4265 46C66.0489 46.1157 67.0213 50.8016 67.5712 50.9173C70.6158 49.5636 72.9948 46.5553 75.8194 45.4214C76.022 45.3405 79.1708 46.0173 79.1476 43.6859C83.5466 46.3818 79.9927 44.328 82.9099 41.3718C82.9273 41.3545 83.1994 41.771 83.3441 41.6611C82.117 45.5371 81.7349 46.0867 85.9488 45.7107C86.7707 45.6355 86.3481 45.352 86.9617 44.8429C91.106 45.7512 95.5977 45.595 99.8404 45.1322C100.379 45.6991 101.062 46.0925 101.432 46.8677C101.797 45.5892 102.613 44.733 103.313 43.6859C103.313 43.8652 103.25 44.2355 103.458 44.2644C104.031 44.3454 113.744 44.3628 115.034 44.2644C117.413 44.0851 119.717 43.1074 122.125 43.1074C121.344 46.5553 123.219 44.7909 124.44 43.1074C124.857 43.0611 124.649 43.6512 124.874 43.6859C126.229 43.8768 142.436 42.8008 149.474 43.6859C150.603 43.8247 164.547 46.671 162.064 48.314C160.229 48.8636 152.53 46.3355 149.764 46C137.771 44.5537 119.659 46.7752 107.22 48.0248C107.07 48.0421 106.555 48.6553 104.326 48.8925C90.2552 50.3851 75.9757 50.6281 62.3618 54.967C63.56 52.3174 64.5092 49.7314 65.1112 46.8677C66.1878 46.6942 66.7551 44.3628 65.8347 43.6859C65.0939 43.6859 65.2096 46.4049 65.1112 46.8677C61.2968 46.8851 66.4136 49.1297 57.0077 54.3884C55.9485 52.2017 56.7183 52.0107 57.0077 51.2066C57.1235 50.8884 57.245 50.3967 57.2971 50.0496C57.8933 48.4587 59.1957 50.2058 59.9018 49.3264C58.6169 33.7817 60.1449 47.8281 61.2042 48.0248C62.5297 45.8785 60.1334 41.233 59.9018 39.7809C59.3809 36.5007 61.9509 44.2181 62.2171 43.5413L61.4936 35.5867C63.1722 36.9751 63.7857 39.1503 64.6771 41.0826C67.2413 33.7123 65.8868 36.7032 65.69 42.095C67.1718 44.1371 67.3339 45.8091 67.4265 46Z" fill="#878A34"/>
<path id="Vector_131" d="M65.1169 46.8677C65.2153 46.4049 65.0996 43.6801 65.8405 43.6859C66.7608 44.3627 66.1935 46.6941 65.1169 46.8677Z" fill="#F1EADF"/>
<path id="Vector_132" d="M62.9463 39.347C63.8608 39.0809 63.7914 43.6859 63.5251 43.6859L62.9463 39.347Z" fill="#F4F3C3"/>
<path id="Vector_133" d="M63.8146 43.9751C64.5786 43.547 63.8782 45.7569 63.6698 45.2768C63.5772 45.0743 63.6351 44.0735 63.8146 43.9751Z" fill="#C3C77E"/>
</g>
<path id="Vector_134" d="M100.13 35.876C100.338 36.4198 100.917 36.0032 100.998 36.3099C102.023 40.1165 101.889 46.7232 99.2616 37.9008C98.9895 36.9867 98.4975 36.9578 98.9721 35.876C99.3021 35.795 99.7651 35.928 100.13 35.876Z" fill="#A3A846"/>
<g id="Group_27">
<path id="Vector_135" d="M81.8969 36.4545C81.7696 36.547 81.5959 36.2925 81.4628 36.1652C80.9882 36.5413 81.5901 37.7851 81.8969 36.4545C82.6204 35.9165 83.3845 35.0255 83.4887 35.0082C85.6477 34.6842 84.8952 40.5214 86.9616 28.9338C87.743 33.9437 83.8012 41.8752 87.1063 38.9132C88.4607 34.0189 87.8009 38.2884 88.8428 38.3347C89.5663 37.0677 84.7389 7.78901 89.8557 37.9008C92.6977 36.5875 91.3722 35.2974 91.8816 32.6941L92.4604 37.033C94.0116 37.0504 95.4703 36.414 96.9462 36.1652C97.1315 36.1363 97.3398 36.1941 97.5251 36.1652C98.0807 36.0727 98.4107 36.0148 98.9721 35.876C98.4975 36.9578 98.9895 36.9867 99.2615 37.9008C97.4267 37.6404 99.742 42.3322 97.6698 39.3471C97.3919 41.1752 93.265 35.2801 93.4733 38.0454C93.5081 38.4851 94.4573 38.4157 94.631 38.6239C94.7178 38.7281 94.5557 39.2603 94.631 39.3471C92.6051 41.1636 89.3463 38.9479 89.711 41.2272L96.3674 41.0826C97.3572 42.2454 98.8969 44.143 99.8404 45.1322C95.5976 45.595 91.106 45.7512 86.9616 44.843C86.348 45.3521 86.7706 45.6355 85.9487 45.7107C88.0498 41.7248 88.1655 38.8206 84.9357 42.8182L84.6463 40.5041C83.9228 40.5272 83.7955 41.3314 83.344 41.6611C83.1993 41.771 82.9272 41.3545 82.9099 41.3719C79.9926 44.3281 83.5466 46.3818 79.1475 43.6859C79.1707 46.0174 76.0219 45.3405 75.8193 45.4215C76.1203 44.6405 77.8047 43.7264 77.8452 42.9628C78.0188 39.7752 76.1782 43.5124 75.3852 43.9752C76.045 42.0719 74.4649 40.157 73.7934 42.095C73.6545 42.4884 74.7311 43.8016 72.3464 45.1322C72.3637 44.6578 71.8139 45.0859 71.7676 45.1322C71.0846 45.8496 70.8704 46.6479 70.7546 46.5785C70.5347 46.4455 70.1063 43.0554 68.7288 48.6033C68.694 47.4636 68.0747 47.0355 67.7158 46.2893L68.4393 43.9752C70.4536 47.4347 69.2092 35.9685 68.0052 31.6817C69.8806 33.371 70.9167 48.1521 71.7676 40.6487C71.9354 39.1504 70.7199 34.7594 71.1887 31.1032C71.2814 32.2313 72.85 43.1306 73.7934 37.4669C74.2275 34.852 72.4679 28.4362 74.0828 25.8966L74.8064 35.876C76.2997 32.052 77.4458 27.8404 76.9769 23.7271H77.5558C77.2027 33.5677 75.7383 38.4272 75.8193 39.2024C75.9756 40.6719 78.2851 44.2297 78.5687 35.5867C79.1475 40.533 79.6858 37.8545 79.2922 34.5743C79.0896 32.9082 77.2548 29.8536 78.2793 28.3553C79.3906 31.971 80.0215 36.8189 80.7393 35.1528C81.677 32.9776 82.2153 23.6346 82.331 20.5453C83.043 22.5065 82.1458 35.3784 81.8969 36.4545Z" fill="#A3A846"/>
<g id="Group_28">
<path id="Vector_136" d="M96.3677 41.0827L89.7113 41.2273C89.3466 38.9479 92.6054 41.1637 94.6313 39.3471C94.7702 39.5033 94.9612 38.9074 95.2101 39.2025C95.5747 39.6306 96.0378 40.6951 96.3677 41.0827Z" fill="#A3A846"/>
<path id="Vector_137" d="M75.9642 40.2149C77.0871 39.9719 75.3969 44.6984 75.8194 40.3595C75.86 40.2843 75.9063 40.2264 75.9642 40.2149Z" fill="#F4F3C3"/>
<path id="Vector_138" d="M81.897 36.4545C81.5903 37.7851 80.9883 36.5413 81.4629 36.1652C81.596 36.2925 81.7697 36.547 81.897 36.4545Z" fill="#E5EA8F"/>
<path id="Vector_139" d="M72.4912 41.3719C73.1394 41.3603 73.0237 42.1355 72.7806 42.2397C72.7285 42.2628 72.2828 41.3777 72.4912 41.3719Z" fill="#D5F07B"/>
<path id="Vector_140" d="M72.3464 45.1322C72.3464 45.1322 72.0859 45.9016 71.7676 45.1322C71.8139 45.0859 72.3638 44.6578 72.3464 45.1322Z" fill="#A3A846"/>
</g>
</g>
<g id="Group_29">
<path id="Vector_141" d="M112.285 32.6941C111.654 39.0289 112.453 37.1602 113.153 32.1156C113.663 28.4189 113.177 34.0189 113.877 34.1404C116.922 27.8982 115.961 29.0147 114.89 34.7189C114.647 36.0264 114.062 35.7429 114.022 36.0206C115.579 36.871 113.883 40.8165 116.337 38.0454C116.719 37.6115 117.477 35.3611 117.784 34.7189C118.525 33.1801 119.202 31.7396 119.665 30.0908C119.173 34.4065 118.791 43.6975 120.533 32.9834C121.448 40.1975 124.608 27.0131 122.704 35.1528C123.277 36.0726 123.526 34.8057 124.006 35.0082C124.336 35.147 123.694 35.5404 123.862 35.5867C122.588 37.0503 123.549 39.3008 123.283 40.938C123.254 41.1289 122.264 42.5057 122.125 43.1074C119.717 43.1074 117.414 44.0851 115.035 44.2644C113.75 44.3628 104.031 44.3454 103.458 44.2644C103.25 44.2355 103.308 43.8652 103.313 43.6859C106.647 38.7049 109.964 35.3553 106.352 36.1652C102.677 44.6867 105.224 33.2784 104.471 30.38C105.027 28.7371 105.235 26.7643 106.786 25.6073C105.808 26.8337 103.481 37.2007 106.497 34.5743C106.989 34.1462 109.646 20.5915 107.076 34.285C109.987 35.2338 110.491 24.8841 110.983 21.1238C110.473 35.4883 111.944 24.6817 113.298 25.1734L113.443 25.6073C112.621 26.5271 109.246 34.1057 109.391 34.5743C109.42 34.6668 110.89 35.5983 110.983 35.5867C111.538 35.4999 112.071 33.1858 112.285 32.6941Z" fill="#A3A846"/>
<path id="Vector_142" d="M117.784 34.7189C117.478 35.361 116.719 37.6115 116.337 38.0453C113.883 40.8164 115.579 36.8767 114.022 36.0205C114.062 35.7428 114.647 36.0205 114.89 34.7189H117.784Z" fill="#BCBC3D"/>
<path id="Vector_143" d="M113.154 32.1156C112.453 37.1602 111.655 39.0288 112.285 32.6941C112.39 32.4511 111.99 31.9709 113.154 32.1156Z" fill="#F4F3C3"/>
<path id="Vector_144" d="M121.691 37.033C121.987 37.2065 121.975 39.0173 121.402 38.19C120.968 37.5594 121.634 36.9983 121.691 37.033Z" fill="#E7ED63"/>
<path id="Vector_145" d="M113.298 36.7437C113.588 36.7437 113.536 39.2024 113.009 38.19C112.951 38.0743 113.211 36.7437 113.298 36.7437Z" fill="#BCBC3D"/>
</g>
<g id="Group_30">
<path id="Vector_146" d="M226.597 75.5043C226.66 76.0712 226.55 76.6671 226.597 77.2398C226.527 77.1646 225.474 77.1473 224.715 76.3721C223.587 75.2092 221.491 72.0679 223.413 72.0332C223.888 72.2704 224.2 72.9299 224.86 72.4671C223.425 70.4249 222.985 66.7687 225.294 70.8762C226.22 68.6315 225.294 71.42 226.886 73.0456C225.798 73.6935 226.498 74.6423 226.597 75.5043Z" fill="#A3A846"/>
<path id="Vector_147" d="M211.837 65.091C210.76 64.2522 210.702 64.5993 209.232 63.6447C209.039 60.2238 208.846 56.8009 208.653 53.3761L209.087 53.2314L210.39 60.8968C215.373 53.0405 210.297 61.4406 211.837 65.091Z" fill="#A3A846"/>
<path id="Vector_148" d="M221.966 71.1654C222.267 78.5646 220.432 74.9315 219.361 74.6365C219.604 73.2943 221.839 72.0505 220.23 70.7315C220.756 70.4943 220.785 70.6563 220.808 70.0083C220.901 67.5554 220.01 65.0736 220.808 62.6323C220.965 65.1315 221.879 68.9959 221.966 71.1654Z" fill="#7A7C2D"/>
<path id="Vector_149" d="M203.154 56.4133C201.846 55.9504 202.425 56.5579 202.286 56.7025C201.852 55.7075 201.366 56.6794 201.128 56.7025C201.036 56.7141 201.03 55.8116 199.681 56.7025V56.4133C201.181 55.4703 201.192 54.1686 201.852 53.8099C204.48 52.3694 203.154 55.8752 203.154 56.4133Z" fill="#BB7638"/>
</g>
<path id="Vector_150" d="M217.335 77.2399C217.596 77.425 217.572 77.4771 217.625 77.5291C220.096 80.0341 217.954 80.9192 217.914 81.1448C217.156 85.1424 221.804 89.2904 222.545 93.1491C222.411 93.8259 221.885 92.8019 221.387 92.2813C218.533 89.3019 215.9 83.0482 212.705 79.8432C212.629 79.768 212.855 79.1953 212.56 78.9754C209.903 77.3498 206.575 77.5754 204.456 76.3721C202.911 75.4927 201.319 72.1721 199.971 74.6365C189.262 67.7233 180.557 67.5613 168.859 72.3225C162.666 68.8861 164.553 71.125 159.453 74.3473C159.482 73.6357 160.344 72.2473 160.611 71.4547C160.906 70.5812 161.207 69.7423 161.768 68.996L161.334 68.5621C159.372 68.8572 146.655 65.3861 149.613 62.777C149.775 62.6323 153.254 61.4175 153.665 61.3307C154.076 61.2439 154.655 61.3885 155.112 61.3307C155.945 62.3373 155.778 62.9505 155.98 63.2109C158.133 65.9704 161.097 63.5464 162.058 64.2233C162.376 64.4489 162.33 64.5009 162.347 64.5125C162.498 64.5877 161.334 65.039 164.952 65.9588C163.459 67.4745 168.025 67.2605 167.267 65.6695C167.713 65.7274 168.83 65.8836 169.004 65.9588C170.034 66.4043 170.856 67.353 171.464 68.2729H172.621C181.691 63.1761 179.127 63.7894 169.582 59.8844C169.623 59.41 169.525 58.9067 169.582 58.4381C169.733 57.2637 169.889 56.124 170.161 54.967C170.265 54.5331 170.601 53.9315 170.74 53.5207C171.944 53.2315 171.464 54.2496 171.898 54.8224C172.888 56.1356 180.586 63.2803 182.751 65.9588C184.719 66.7514 195.479 68.4059 196.063 68.8514C197.354 69.8407 194.362 69.696 195.774 70.8762C201.412 70.3208 206.754 75.487 207.35 75.7936C207.651 75.944 212.485 77.5118 213.718 78.1076C215.952 79.1895 214.638 81.463 217.335 77.2399Z" fill="#606121"/>
<path id="Vector_151" d="M172.772 50.3389C174.74 54.9786 182.565 58.8604 186.229 63.3555C195.01 66.7398 203.241 71.1308 211.697 75.2151C212.699 75.701 216.658 76.7482 217.341 77.2399C214.644 81.4631 215.958 79.1895 213.723 78.1077C212.49 77.5118 207.657 75.9498 207.356 75.7936C206.76 75.487 201.418 70.3209 195.78 70.8762C194.368 69.6961 197.36 69.8407 196.069 68.8514C195.485 68.406 184.724 66.7514 182.756 65.9588C180.592 63.2803 172.893 56.1356 171.903 54.8224C171.469 54.2497 171.95 53.2315 170.746 53.5207C170.919 53.0116 171.116 51.4554 171.325 51.0621C171.527 50.6802 172.164 50.3852 172.193 50.3389C172.378 50.362 172.621 50.2984 172.772 50.3389Z" fill="#7A7C2D"/>
<path id="Vector_152" d="M222.544 93.1432C221.804 89.2845 217.156 85.1366 217.914 81.139C217.954 80.9134 220.096 80.0283 217.625 77.5233C221.769 77.639 219.679 79.8952 220.229 81.7176C220.935 84.0432 228.171 91.8937 222.544 93.1432Z" fill="#7A7C2D"/>
<path id="Vector_153" d="M95.4992 117.441C96.1185 118.002 98.92 119.327 99.8404 120.334C99.6378 120.229 97.4209 119.645 95.9333 118.887C96.2633 121.467 97.8376 122.723 95.2098 121.491C95.1809 121.479 95.2908 120.883 95.0651 120.912C94.4342 120.999 94.8451 122.688 94.1969 122.358C93.2707 121.884 94.9204 118.303 91.5922 122.358C92.3388 117.117 90.3824 116.943 90.2898 121.78H89.4216C89.3637 120.929 88.9238 116.55 88.8428 116.284C88.9875 113.889 94.9609 120.05 95.4992 117.441Z" fill="#774229"/>
<path id="Vector_154" d="M69.1627 108.474C69.2611 109.348 69.3479 110.198 69.4521 111.077C69.5621 111.98 69.6605 113.062 69.7415 113.97C70.413 121.572 70.9976 125.934 68.4392 120.623C66.2513 125.147 67.8199 118.147 68.0051 113.247C68.0861 111.141 68.2019 109.255 67.4263 109.631C67.7851 108.144 67.872 106.258 68.2945 105.292C68.7344 106.235 69.047 107.467 69.1627 108.474Z" fill="#606121"/>
<path id="Vector_155" d="M95.21 121.491C95.5341 123.348 95.4589 131.626 94.0524 127.276C93.925 126.888 94.1797 125.986 94.0524 125.685C91.5924 120.038 90.1743 127.958 90.29 121.78C90.3826 116.943 92.3391 117.117 91.5924 122.358C94.9206 118.303 93.271 121.884 94.1971 122.358C94.8453 122.688 94.4344 120.999 95.0653 120.912C95.291 120.883 95.1811 121.479 95.21 121.491Z" fill="#878A34"/>
<path id="Vector_156" d="M164.669 120.912C164.281 122.162 163.864 124.267 164.958 125.106C159.471 127.345 155.998 128.803 159.17 124.383C162.892 123.365 161.861 123.232 164.234 120.334C164.697 120.675 164.634 120.912 164.669 120.912Z" fill="#7A7C2D"/>
<path id="Vector_157" d="M74.6618 112.813C74.6618 112.859 74.9917 112.581 74.9512 113.681L73.7935 115.416C72.5144 112.367 71.9529 116.92 71.3336 118.309C70.8589 116.053 71.9297 113.623 69.7418 113.97C69.6608 113.062 69.5624 111.98 69.4524 111.077L74.6618 112.813Z" fill="#6D4523"/>
<path id="Vector_158" d="M76.3983 108.763C76.3172 111.262 76.5024 113.785 76.3983 116.284C76.3983 116.382 75.8542 115.873 75.8194 118.164C75.8137 118.621 76.8903 122.11 75.8194 118.743C75.2811 118.286 75.2638 118.905 75.2406 118.887C75.0959 118.766 74.766 119.402 74.6618 119.032C74.3492 117.915 74.9049 115.11 74.9512 113.681C74.9917 112.581 74.6618 112.859 74.6618 112.813C74.6676 112.61 75.2001 110.823 74.9512 108.763C75.0843 108.775 75.0901 108.578 76.3983 108.763Z" fill="#606121"/>
<path id="Vector_159" d="M213.862 98.6392C213.486 97.7772 215.923 96.5855 217.914 95.1681L219.216 95.7466C217.358 96.4871 215.668 97.8466 213.862 98.6392Z" fill="#9C9844"/>
<g id="Group_31">
<path id="Vector_160" d="M183.769 56.124C183.509 57.5067 183.601 58.2183 185.216 58.1488C185.13 58.5885 185.621 59.1207 185.94 59.3059C189.123 61.1571 215.726 74.0638 218.354 74.9258C218.915 75.1109 219.182 74.5845 219.367 74.6365C220.438 74.9316 222.272 78.5647 221.971 71.1654C222.44 71.5126 222.898 71.7729 223.418 72.0332C221.497 72.0679 223.592 75.2093 224.721 76.3721C225.479 77.1473 226.533 77.1647 226.602 77.2399C229.838 80.63 232.043 86.525 235.863 90.4011C235.296 90.754 236.749 92.1019 237.021 93.8722C237.368 96.1226 235.62 101.769 239.336 100.381C239.423 101.711 239.492 104.962 239.915 105.876C239.214 105.882 239.058 107.219 238.323 107.901C235.626 110.4 219.755 115.873 215.17 118.604C200.868 122.862 187.283 129.029 172.627 132.199C162.735 136.277 152.681 139.986 142.239 142.323C130.628 142.502 119.092 142.282 107.51 141.455C89.5489 138.013 72.5316 131.429 55.4159 125.257C48.5916 120.629 33.2934 112.633 28.2113 108.769C22.753 104.621 18.7707 98.6102 12.7279 95.1739C13.0404 93.8896 15.0837 87.9077 15.0431 87.5085C14.6959 84.0664 10.6846 94.2193 10.4126 95.1739C9.53278 93.8433 6.91072 86.8259 6.93966 86.0622C7.03227 83.7308 13.845 77.344 6.79496 83.3143C4.93115 81.868 10.4357 74.7638 11.5702 73.4795C12.8436 72.039 18.1572 67.972 19.3843 66.2481C20.1078 67.677 20.9413 66.6877 21.6996 65.6695C22.0932 67.3067 24.2174 64.1133 24.7384 63.934C25.6182 63.6274 32.2804 62.7191 34.2889 64.2233C38.387 62.777 42.4869 61.3307 46.5889 59.8844C45.5701 61.0125 44.9624 61.8571 45.1418 63.5001C42.9133 64.0844 34.8967 70.3035 34.1442 71.5993C33.1544 73.3117 33.8664 73.1093 33.8548 73.1903C33.768 73.9192 33.9879 76.0018 33.8548 76.2275C33.6754 76.5283 30.3645 76.8118 30.2372 76.9506C29.7915 77.4366 30.8392 79.2242 28.356 79.4093L29.3689 86.4961C34.1269 74.7812 30.6944 85.8077 31.6842 91.1242C32.5293 89.8747 33.1313 87.7341 34.1442 86.6408C35.927 84.7201 35.5681 87.7284 35.0124 90.1118C34.7636 91.1647 33.878 91.7433 33.8548 91.8474C33.2413 94.4334 32.2804 99.7904 33.276 97.9218C34.0516 96.464 33.6696 93.8491 34.723 92.5705C34.9198 94.2309 34.8967 100.201 36.1701 99.0788L36.3148 100.959C39.1857 93.5424 36.4074 105.576 38.9195 97.4879L39.2089 100.381L41.3795 97.7772C41.0785 102.336 41.501 102.637 43.2606 98.3557C44.7135 103.1 45.0492 103.962 44.563 98.2111C44.5456 98.0086 45.2402 98.24 45.1418 97.6326C44.563 94.1615 39.9614 97.8871 45.2865 90.835L44.563 94.1615C46.0621 95.116 45.1071 98.535 45.1418 98.7896C46.0274 104.806 46.5425 98.2111 46.8783 97.054C48.2501 92.3276 47.9375 98.3962 47.7465 99.9466C47.6712 100.542 45.628 106.646 48.3253 101.971C48.1517 108.393 49.1125 107.543 49.3382 101.248C50.5943 107.028 56.1568 115.914 51.2194 103.707L51.3641 96.6202C51.7288 96.5565 53.2684 103.111 53.5347 103.707C54.1309 105.049 53.8762 103.967 54.4029 103.852L56.1394 115.856L57.4417 117.157C58.171 116.862 56.5504 104.737 56.4288 103.562C56.3883 103.175 56.5735 102.822 56.1394 102.55C60.0059 99.4433 57.5517 99.4144 58.1653 106.31C58.4489 109.527 59.2592 112.865 60.0464 116L61.2041 107.323C62.9232 108.607 62.6743 112.026 63.0852 112.385C63.473 112.726 64.0287 111.071 64.5323 112.095C65.1053 121.705 64.9838 119.824 67.4264 109.637C68.202 109.261 68.0862 111.147 68.0052 113.252C67.82 118.153 66.2514 125.153 68.4393 120.629C70.9977 125.939 70.4131 121.577 69.7417 113.976C71.9296 113.629 70.8588 116.058 71.3334 118.315C71.9528 116.926 72.5142 112.373 73.7934 115.422C74.7079 117.603 73.5503 129.231 75.2405 118.893C75.2636 118.91 75.281 118.291 75.8193 118.748C76.8901 122.115 75.8135 118.627 75.8193 118.17C75.854 115.879 76.3923 116.388 76.3981 116.29L77.411 118.604C79.5469 110.053 79.0723 122.543 78.5687 125.257C79.0202 121.641 82.0011 116.214 81.0287 121.641C82.5568 121.491 81.1792 124.348 82.4757 123.955C81.7348 120.287 83.0488 119.836 83.1992 123.81L84.6463 120.629C85.7287 123.377 87.5693 128.537 86.5275 121.641C88.1655 122.162 87.4304 111.835 88.8427 116.29C88.9238 116.556 89.3637 120.935 89.4216 121.786C89.5489 123.672 88.9064 125.529 89.4216 127.426C90.1856 127.085 90.0004 124.25 90.8686 125.401L90.0004 128.583C92.5761 127.814 90.857 124.192 94.0521 127.282C95.4587 131.632 95.5339 123.353 95.2098 121.496C97.8376 122.729 96.2632 121.473 95.9333 118.893C97.4209 119.651 99.6377 120.235 99.8403 120.339C99.9156 120.38 100.054 120.299 100.13 120.339C99.9735 121.722 100.298 123.035 100.419 124.389C100.628 126.761 100.575 129.856 101.287 129.451C101.814 126.2 102.202 127.866 104.616 131.331C105.264 128.265 103.522 125.569 102.156 123.232C102.115 123.162 102.196 123.012 102.156 122.943C104.315 121.786 103.284 124.794 104.181 122.364C104.257 122.584 107.047 126.269 106.786 125.546C107.394 125.471 106.896 124.285 107.076 123.81C110.485 125.419 106.491 134.762 110.693 127.282L111.851 132.199C113.454 132.413 111.017 121.386 111.417 120.05C112.58 120.004 112.001 122.034 114.021 121.786C113.83 122.833 113.269 124.325 114.166 125.257C114.606 125.274 115.086 123.041 115.179 122.653C116.672 123.328 118.168 124.003 119.665 124.678C120.852 130.591 123.306 125.702 124.585 129.596C134.407 122.908 130.321 128.317 131.531 129.306C131.855 129.572 139.582 129.26 139.924 129.017C140.491 128.612 139.49 122.995 144.41 128.439C145.069 129.167 145.284 130.51 146.001 130.463L148.461 128.872C148.473 128.525 147.882 127.368 147.882 127.282C147.865 126.634 147.732 124.1 148.317 123.81C149.683 123.446 150.557 125.025 151.789 125.257C153.092 125.505 157.711 124.788 159.169 124.389C155.997 128.809 159.47 127.351 164.958 125.112C163.864 124.273 164.28 122.167 164.668 120.918C170.416 120.663 166.879 118.708 171.18 116.29C173.408 115.867 176.169 115.329 178.27 114.554C179.116 114.242 179.428 114.334 180.007 113.397C181.645 114.415 180.742 113.762 182.322 113.397C184.244 112.952 184.452 112.587 184.637 112.529C184.672 112.518 184.637 113.05 185.361 112.819C186.785 112.356 188.226 111.384 189.557 110.794C190.466 110.395 195.548 108.439 195.78 108.19C196.092 107.855 196.15 106.582 196.214 106.455C196.752 106.987 197.597 106.056 197.661 105.298C201.105 104.089 198.882 104.043 200.41 98.9342C201.533 98.8764 200.665 104.569 202.436 104.43C208.242 102.932 205.874 101.948 207.646 100.67C208.3 100.195 212.016 99.4607 213.868 98.645C215.674 97.8524 217.364 96.4929 219.222 95.7524L217.92 95.1739C219.135 94.3061 220.507 93.5367 221.393 92.2813C221.89 92.8019 222.417 93.8259 222.55 93.1491C228.176 91.8995 220.941 84.049 220.235 81.7234C219.685 79.901 221.775 77.6448 217.63 77.5291C217.578 77.4771 217.601 77.425 217.341 77.2399C216.658 76.7481 212.699 75.701 211.697 75.2151C203.241 71.1307 195.016 66.7398 186.229 63.3555C182.571 58.8662 174.745 54.9786 172.772 50.3389C176.366 51.3686 180.823 54.6604 181.309 54.6777C181.987 54.7009 182.542 53.3298 183.046 53.5207C183.954 53.8736 182.751 56.3381 183.769 56.124Z" fill="#878A34"/>
<g id="Group_32">
<g id="Group_33">
<path id="Vector_161" d="M107.075 123.805C108.43 120.166 109.784 126.581 110.548 120.478C110.832 120.391 111.214 120.05 111.416 120.044C111.017 121.381 113.454 132.407 111.85 132.193L110.693 127.276C106.491 134.756 110.484 125.413 107.075 123.805Z" fill="#7A7C2D"/>
<path id="Vector_162" d="M56.4343 103.557C56.5559 104.731 58.1766 116.857 57.4473 117.152L56.1449 115.85L54.4084 103.846C55.132 103.69 56.0465 103.371 56.4343 103.557Z" fill="#63501B"/>
<path id="Vector_163" d="M102.155 123.226C103.521 125.563 105.263 128.259 104.615 131.325C102.201 127.86 101.814 126.194 101.287 129.445C100.575 129.85 100.627 126.755 100.419 124.383C100.974 123.475 100.783 123.041 102.155 123.226Z" fill="#7A7C2D"/>
<path id="Vector_164" d="M90.2897 121.78C90.1739 127.958 91.592 120.038 94.052 125.685C94.1793 125.986 93.9246 126.888 94.052 127.276C90.8569 124.186 92.576 127.808 90.0002 128.577L90.8685 125.396C90.0002 124.244 90.1855 127.079 89.4214 127.42C88.9063 125.523 89.5488 123.666 89.4214 121.78H90.2897Z" fill="#7A7C2D"/>
<path id="Vector_165" d="M116.481 124.962C118.819 124.262 118.773 128.23 118.941 128.577C119.977 130.735 120.938 131.296 120.967 131.47C121.279 133.425 119.844 129.7 118.362 132.338C117.39 125.748 116.047 127.53 115.757 126.842C115.584 126.425 116.087 125.077 116.481 124.962Z" fill="#7A7C2D"/>
<path id="Vector_166" d="M42.9769 100.664C43.6657 101.757 46.1372 104.528 46.3051 104.858C48.8114 109.845 45.6626 104.968 44.7133 106.16C43.6194 101.671 40.6153 106.646 42.9769 100.664Z" fill="#606121"/>
<path id="Vector_167" d="M74.9509 113.681C74.9046 115.109 74.3489 117.915 74.6614 119.032C74.7656 119.402 75.0956 118.766 75.2403 118.887C73.5501 129.225 74.7077 117.597 73.7932 115.416L74.9509 113.681Z" fill="#553F16"/>
<path id="Vector_168" d="M63.5246 113.391C63.9645 113.727 63.1773 122.086 62.6563 117.73C60.2484 120.571 63.2294 116.567 61.9328 115.271L63.5246 113.391Z" fill="#606121"/>
<path id="Vector_169" d="M33.1369 89.6779C34.0746 89.8804 30.4975 96.1515 29.9534 96.6201C31.0145 94.306 32.0757 91.992 33.1369 89.6779Z" fill="#606121"/>
<path id="Vector_170" d="M53.9744 108.763C54.4374 110.661 55.0162 112.587 54.5532 114.548L53.9744 108.763Z" fill="#606121"/>
</g>
<path id="Vector_171" d="M197.661 105.292C197.597 106.05 196.752 106.981 196.214 106.449C197.504 103.886 196.966 105.535 197.661 105.292Z" fill="#606121"/>
</g>
</g>
<path id="Vector_172" d="M163.8 51.2067C164.194 51.8951 164.576 52.5315 164.958 53.2315C162.388 52.5604 159.719 52.3001 157.144 51.7852C155.274 51.4091 155.488 50.767 153.237 51.4959C153.028 51.4034 153.15 50.4257 152.658 50.3389C148.357 49.5637 148.189 51.1372 146.435 51.2067C146.268 50.3736 145.127 50.7034 144.41 50.9174C143.796 51.1025 143.142 50.6282 143.831 51.7852C141.157 50.5934 134.002 50.6166 131.097 50.3389C128.862 50.1248 129.053 49.4827 128.926 49.4711C126.947 49.3265 124.926 50.1191 123.138 50.0496C121.187 49.9744 121.633 49.4711 121.546 49.4711C125.714 49.6736 128.272 48.3546 128.637 48.3141C133.314 47.7819 145.625 47.3942 150.053 48.0248C154.55 48.667 159.505 51.5017 163.8 51.2067Z" fill="#606121"/>
<path id="Vector_173" d="M157.144 51.7851C155.743 52.5372 158.191 53.3066 159.604 52.6529C161.745 53.9372 163.609 55.2562 166.115 56.124C165.878 57.2174 164.998 57.7612 164.958 57.8596C158.759 56.6852 153.462 52.3405 147.014 52.0744C146.974 52.0397 146.192 51.519 146.146 51.4959C146.117 51.2529 146.216 51.2182 146.435 51.2066C148.189 51.1372 148.357 49.5636 152.658 50.3388C153.15 50.4256 153.028 51.4033 153.237 51.4959C155.488 50.7669 155.268 51.4091 157.144 51.7851Z" fill="#514A27"/>
<path id="Vector_174" d="M164.958 53.2314C165.016 53.3356 165.838 53.9893 166.405 55.1116C166.503 55.7422 166.179 55.829 166.116 56.124C163.609 55.2563 161.751 53.9372 159.604 52.6529C158.191 53.3067 155.743 52.5372 157.144 51.7852C159.72 52.3 162.388 52.5604 164.958 53.2314Z" fill="#606121"/>
<g id="Group_34">
<path id="Vector_175" d="M199.687 56.4133V56.7026C196.266 58.9588 200.028 60.5034 201.134 56.7026C201.371 56.6794 201.857 55.7075 202.292 56.7026C199.398 59.6703 202.211 59.9943 202.581 59.4505C202.818 59.1034 202.523 57.2348 202.292 56.7026C202.431 56.5579 201.852 55.9505 203.16 56.4133C203.16 57.096 202.957 59.1902 203.594 59.3059C208.288 52.167 202.535 64.6861 206.488 59.3059C205.255 62.1753 207.003 62.1927 209.237 63.6448C210.708 64.5993 210.766 64.2522 211.842 65.091C212.155 66.8034 212.936 62.4357 213.723 60.1737C212.519 76.0655 215.651 61.2323 215.749 54.967C215.892 57.3274 216.037 59.6896 216.183 62.0538C219.98 55.7654 217.26 60.4282 216.762 63.5001C216.635 64.2985 216.287 68.6663 216.473 68.996H217.052C220.594 56.7778 218.423 62.5571 220.814 70.0084C220.791 70.6564 220.762 70.4944 220.235 70.7316C221.844 72.0506 219.61 73.2944 219.367 74.6366C219.182 74.5845 218.915 75.1109 218.354 74.9258C215.726 74.0638 189.123 61.1571 185.94 59.3059C185.622 59.1208 185.13 58.5885 185.216 58.1488C185.407 58.1431 188.55 57.4083 188.979 57.2811C189.239 57.2059 189.928 57.4431 190.715 56.8472C190.802 56.1588 190.588 55.0306 190.715 54.6778C190.796 54.4521 192.139 51.4149 192.307 51.4959C191.537 57.6803 193.719 51.062 194.188 52.2191C191.67 55.7596 192.66 58.6579 195.201 54.6778C193.841 59.4505 195.56 56.0835 195.78 56.124C196.411 56.2455 194.744 59.3869 198.095 55.2563C198.599 55.3835 196.532 58.3976 199.687 56.4133Z" fill="#A3A846"/>
<path id="Vector_176" d="M201.134 56.7026C200.028 60.5035 196.266 58.9588 199.687 56.7026C201.036 55.8117 201.041 56.7142 201.134 56.7026Z" fill="#F1EADF"/>
<path id="Vector_177" d="M202.286 56.7026C202.518 57.2348 202.813 59.1034 202.575 59.4505C202.205 59.9943 199.392 59.6704 202.286 56.7026Z" fill="#F1EADF"/>
<path id="Vector_178" d="M218.927 63.9341C219.315 63.9341 218.939 65.4614 218.927 65.6696C218.562 72.3804 217.683 69.7597 218.782 64.0787L218.927 63.9341Z" fill="#F4F3C3"/>
</g>
<path id="Vector_179" d="M212.705 79.8432C211.773 79.039 211.593 78.9176 210.389 78.6862C208.52 78.3333 206.858 78.6514 205.035 78.9754C203.495 77.3498 201.857 75.8572 199.97 74.6365C201.319 72.1721 202.911 75.4927 204.456 76.3721C206.575 77.5754 209.903 77.3498 212.56 78.9754C212.855 79.1952 212.629 79.768 212.705 79.8432Z" fill="#514A27"/>
<path id="Vector_180" d="M38.7807 93.4325C38.4334 94.7747 37.7619 96.1053 37.4783 97.4822C36.3959 91.2168 35.2093 99.2466 35.3077 92.5648C38.7228 86.9127 35.354 94.7747 39.5042 89.3829C39.6894 89.4697 38.8617 93.1144 38.7807 93.4325Z" fill="#7A7C2D"/>
<path id="Vector_181" d="M40.8065 95.1681C39.8225 95.3359 40.465 94.2598 40.083 94.0111C39.9904 93.9532 38.4797 95.4516 39.0701 93.4326L41.5301 91.697C42.1378 92.1078 40.9165 94.3524 40.8065 95.1681Z" fill="#7A7C2D"/>
<path id="Vector_182" d="M169.01 65.9588C169.548 64.9348 169.229 63.6332 169.299 62.4877C169.357 61.591 169.507 60.7695 169.588 59.8844C179.133 63.7894 181.697 63.1762 172.627 68.2729H171.47C170.862 67.353 170.04 66.4043 169.01 65.9588Z" fill="#606121"/>
<g id="Group_35">
<path id="Vector_183" d="M35.3078 92.5647C35.2094 99.2466 36.396 91.211 37.4784 97.4821C37.762 96.1053 38.4335 94.7747 38.7807 93.4325H39.0702C38.4798 95.4515 39.9905 93.9532 40.0831 94.011C40.4651 94.2598 39.8226 95.3358 40.8066 95.1681C40.4883 97.5689 41.2349 96.5507 41.3854 97.7714L39.2149 100.375L38.9255 97.4821C36.4134 105.57 39.1917 93.5367 36.3208 100.953L36.1761 99.073C34.9026 100.195 34.9258 94.2251 34.729 92.5647C35.2731 91.9052 35.2036 91.0606 35.3078 92.5647Z" fill="#63501B"/>
<path id="Vector_184" d="M36.3208 96.9036C36.587 97.0598 36.5176 98.616 36.3208 98.6392C36.0603 98.6681 35.8056 96.6028 36.3208 96.9036Z" fill="#878A34"/>
</g>
</g>
<path id="Vector_185" d="M146.436 51.2066C146.216 51.2182 146.117 51.2529 146.146 51.4959C145.706 51.2587 144.641 51.3686 144.41 50.9174C145.128 50.7033 146.268 50.3736 146.436 51.2066Z" fill="#C3A087"/>
</g>
</g>
</g>
<defs>
<linearGradient id="paint0_linear_96_2288" x1="184.268" y1="33.0354" x2="177.974" y2="40.2181" gradientUnits="userSpaceOnUse">
<stop stop-color="#CDBB75"/>
<stop offset="1" stop-color="#816F29"/>
</linearGradient>
</defs>
</svg>
