<svg xmlns="http://www.w3.org/2000/svg" height="24" viewBox="0 -960 960 960" width="24"><path d="M480-512q-44.55 0-76.275-31.725Q372-575.45 372-620q0-44.55 31.725-76.275Q435.45-728 480-728q44.55 0 76.275 31.725Q588-664.55 588-620q0 44.55-31.725 76.275Q524.55-512 480-512ZM212-232v-52q0-22 13.5-41.5T262-356q55-26 109.5-39T480-408q54 0 108.5 13T698-356q23 11 36.5 30.5T748-284v52H212Zm28-28h480v-24q0-14-9.5-26.5T684-332q-48-23-99.687-35.5Q532.627-380 480-380q-52.626 0-104.313 12.5Q324-355 276-332q-17 9-26.5 21.5T240-284v24Zm240-280q33 0 56.5-23.5T560-620q0-33-23.5-56.5T480-700q-33 0-56.5 23.5T400-620q0 33 23.5 56.5T480-540Zm0-80Zm0 360Z"/></svg>