<svg width="33" height="33" viewBox="0 0 33 33" fill="none" xmlns="http://www.w3.org/2000/svg">
<mask id="mask0_37_953" style="mask-type:luminance" maskUnits="userSpaceOnUse" x="21" y="20" width="12" height="13">
<path d="M21.8916 20.6568H32.9445V32.8378H21.8916V20.6568Z" fill="white"/>
</mask>
<g mask="url(#mask0_37_953)">
<path d="M31.8464 20.7972C31.2391 20.7972 30.7483 21.2869 30.7483 21.8919V30.6484H23.1283C22.5216 30.6484 22.0303 31.1381 22.0303 31.7431C22.0303 32.3481 22.5216 32.8378 23.1283 32.8378H31.8464C32.453 32.8378 32.9444 32.3481 32.9444 31.7431V21.8919C32.9444 21.2869 32.453 20.7972 31.8464 20.7972Z" fill="#474647"/>
</g>
<mask id="mask1_37_953" style="mask-type:luminance" maskUnits="userSpaceOnUse" x="0" y="20" width="12" height="13">
<path d="M0 20.6568H11.0529V32.8378H0V20.6568Z" fill="white"/>
</mask>
<g mask="url(#mask1_37_953)">
<path d="M1.09804 32.838H9.81554C10.4217 32.838 10.9136 32.3483 10.9136 31.7433C10.9136 31.1382 10.4217 30.6486 9.81554 30.6486H2.19609V21.8921C2.19609 21.2871 1.70472 20.7974 1.09804 20.7974C0.491919 20.7974 0 21.2871 0 21.8921V31.7433C0 32.3483 0.491919 32.838 1.09804 32.838Z" fill="#474647"/>
</g>
<mask id="mask2_37_953" style="mask-type:luminance" maskUnits="userSpaceOnUse" x="20" y="0" width="13" height="13">
<path d="M20.751 0.00012207H32.9448V12.0998H20.751V0.00012207Z" fill="white"/>
</mask>
<g mask="url(#mask2_37_953)">
<path d="M31.8468 0.00012207H21.9633C21.356 0.00012207 20.8652 0.489812 20.8652 1.09482C20.8652 1.69983 21.356 2.18952 21.9633 2.18952H30.7487V10.946C30.7487 11.551 31.2395 12.0407 31.8468 12.0407C32.4535 12.0407 32.9448 11.551 32.9448 10.946V1.09482C32.9448 0.489812 32.4535 0.00012207 31.8468 0.00012207Z" fill="#474647"/>
</g>
<mask id="mask3_37_953" style="mask-type:luminance" maskUnits="userSpaceOnUse" x="0" y="0" width="13" height="13">
<path d="M0 0H12.1938V12.0996H0V0Z" fill="white"/>
</mask>
<g mask="url(#mask3_37_953)">
<path d="M1.09804 12.0406C1.70472 12.0406 2.19609 11.5509 2.19609 10.9459V2.1894H10.9815C11.5882 2.1894 12.0796 1.69971 12.0796 1.0947C12.0796 0.48969 11.5882 0 10.9815 0H1.09804C0.491919 0 0 0.48969 0 1.0947V10.9459C0 11.5509 0.491919 12.0406 1.09804 12.0406Z" fill="#474647"/>
</g>
<mask id="mask4_37_953" style="mask-type:luminance" maskUnits="userSpaceOnUse" x="10" y="19" width="12" height="8">
<path d="M10.1973 19.6584H21.0362V26.1575H10.1973V19.6584Z" fill="white"/>
</mask>
<g mask="url(#mask4_37_953)">
<path d="M20.8139 19.8301C20.7376 19.7292 20.6173 19.6696 20.4897 19.6696H10.7455C10.6179 19.6696 10.4976 19.7292 10.4212 19.8301C10.3449 19.9303 10.3198 20.0618 10.3549 20.1827L11.9789 25.8183C12.0285 25.9916 12.1884 26.1108 12.3694 26.1108H18.8657C19.0468 26.1108 19.2061 25.9916 19.2563 25.8183L20.8802 20.1827C20.9153 20.0607 20.8908 19.9303 20.8139 19.8301Z" fill="#474647"/>
</g>
<mask id="mask5_37_953" style="mask-type:luminance" maskUnits="userSpaceOnUse" x="8" y="7" width="17" height="12">
<path d="M8.71533 7.54584H24.1737V18.9452H8.71533V7.54584Z" fill="white"/>
</mask>
<g mask="url(#mask5_37_953)">
<path d="M9.43724 10.0586C9.55479 10.7655 9.66509 11.4329 10.059 11.8229C10.4617 12.2223 10.9915 12.4218 11.5208 12.4218C11.9091 12.4218 12.2957 12.3126 12.6333 12.0981C13.577 13.4084 14.8043 17.1382 15.2277 18.5749C15.279 18.7471 15.4372 18.8646 15.6177 18.8646C15.6205 18.8646 15.6238 18.8646 15.6272 18.8646C15.8105 18.8607 15.9692 18.7332 16.0121 18.556C16.016 18.541 16.216 17.7493 16.8194 16.5677C17.4623 17.0151 18.2043 17.2513 18.9514 17.2502C19.9035 17.2502 20.8516 16.8897 21.5753 16.1722C22.2706 15.483 22.4817 14.2101 22.7046 12.863C22.9458 11.4106 23.1954 9.90814 24.0243 9.0853C24.1402 8.97054 24.1753 8.79728 24.1118 8.64687C24.0505 8.49589 23.9018 8.39784 23.7374 8.39784C20.6912 8.39784 17.9113 9.35048 16.3035 10.9443C15.3754 11.8647 15.0093 13.2268 15.3497 14.5014C15.391 14.658 15.523 14.7744 15.6851 14.7972C15.8472 14.8195 16.0066 14.7454 16.0901 14.6062C16.8338 13.3805 17.7514 12.224 18.8166 11.1666C18.9753 11.0095 19.2327 11.0095 19.3909 11.1666C19.5491 11.3237 19.5491 11.5789 19.3909 11.736C19.079 12.0452 18.796 12.3516 18.5269 12.6563C18.5007 12.6858 18.4767 12.7159 18.4506 12.7454C16.9291 14.4908 16.0779 16.1159 15.64 17.1655C15.1124 15.5298 14.1236 12.7204 13.2205 11.5338C13.7748 10.736 13.6979 9.63349 12.9826 8.92542C12.128 8.07807 10.7208 7.59283 9.12136 7.59283C8.95702 7.59283 8.80883 7.69088 8.74588 7.8413C8.68292 7.99227 8.71747 8.16442 8.8339 8.2803C9.20326 8.64575 9.32192 9.36385 9.43724 10.0586Z" fill="#474647"/>
</g>
</svg>
