<svg width="26" height="26" viewBox="0 0 26 26" fill="none" xmlns="http://www.w3.org/2000/svg">
<path d="M0.894966 10.546C0.894966 5.00781 5.40104 0.501731 10.9392 0.501731C16.4774 0.501731 20.9835 5.00781 20.9835 10.546C20.9835 12.8368 20.2157 14.9388 18.9193 16.6254L25.0742 22.8181C25.3385 23.0825 25.4896 23.4475 25.4896 23.8503C25.4896 24.6936 24.898 25.3355 24.0421 25.3355C23.6393 25.3355 23.2617 25.197 22.9722 24.9076L16.7795 18.7023C15.1306 19.8854 13.1293 20.5903 10.9392 20.5903C5.40104 20.5903 0.894966 16.0842 0.894966 10.546ZM3.04731 10.546C3.04731 14.901 6.5842 18.4379 10.9392 18.4379C15.2943 18.4379 18.8312 14.901 18.8312 10.546C18.8312 6.19097 15.2943 2.65407 10.9392 2.65407C6.5842 2.65407 3.04731 6.19097 3.04731 10.546Z" fill="#474647"/>
</svg>
