<svg width="142" height="120" viewBox="0 0 142 120" fill="none" xmlns="http://www.w3.org/2000/svg">
    <rect width="141.633" height="119.703" rx="9.84026" fill="#72B94F"/>
    <path d="M46.6633 29.4187C51.1453 29.4187 54.7788 25.7852 54.7788 21.3032C54.7788 16.8212 51.1453 13.1877 46.6633 13.1877C42.1813 13.1877 38.5479 16.8212 38.5479 21.3032C38.5479 25.7852 42.1813 29.4187 46.6633 29.4187Z" fill="#22BA8E"/>
    <path d="M28.4035 34.4907C32.8856 34.4907 36.519 30.8573 36.519 26.3753C36.519 21.8932 32.8856 18.2598 28.4035 18.2598C23.9215 18.2598 20.2881 21.8932 20.2881 26.3753C20.2881 30.8573 23.9215 34.4907 28.4035 34.4907Z" fill="#22BA8E"/>
    <path d="M37.5334 26.3753C42.0155 26.3753 45.6489 22.7419 45.6489 18.2599C45.6489 13.7778 42.0155 10.1444 37.5334 10.1444C33.0514 10.1444 29.418 13.7778 29.418 18.2599C29.418 22.7419 33.0514 26.3753 37.5334 26.3753Z" fill="#80D25B"/>
    <path d="M49.7068 39.5629C54.1888 39.5629 57.8222 35.9295 57.8222 31.4475C57.8222 26.9654 54.1888 23.332 49.7068 23.332C45.2247 23.332 41.5913 26.9654 41.5913 31.4475C41.5913 35.9295 45.2247 39.5629 49.7068 39.5629Z" fill="#80D25B"/>
    <path d="M43.6203 47.6784C48.1024 47.6784 51.7358 44.045 51.7358 39.563C51.7358 35.0809 48.1024 31.4475 43.6203 31.4475C39.1383 31.4475 35.5049 35.0809 35.5049 39.563C35.5049 44.045 39.1383 47.6784 43.6203 47.6784Z" fill="#80D25B"/>
    <path fill-rule="evenodd" clip-rule="evenodd" d="M37.5338 33.4764H41.5915C41.5915 33.4764 41.071 42.3658 41.5915 51.7362C42.1121 61.1065 45.6493 69.9959 45.6493 69.9959H33.4761C33.4761 69.9959 37.0399 60.6256 37.5338 51.7362C38.0277 42.8467 37.5338 33.4764 37.5338 33.4764Z" fill="#BD7575"/>
    <path d="M14.2017 68.9814H67.0398" stroke="#22BA8E" stroke-width="2.02886" stroke-linecap="square"/>
    <path d="M39.5629 43.6207C47.4065 43.6207 53.7649 37.2622 53.7649 29.4187C53.7649 21.5751 47.4065 15.2166 39.5629 15.2166C31.7193 15.2166 25.3608 21.5751 25.3608 29.4187C25.3608 37.2622 31.7193 43.6207 39.5629 43.6207Z" fill="#22BA8E"/>
    <path d="M31.447 45.6495C35.929 45.6495 39.5625 42.0161 39.5625 37.534C39.5625 33.052 35.929 29.4186 31.447 29.4186C26.965 29.4186 23.3315 33.052 23.3315 37.534C23.3315 42.0161 26.965 45.6495 31.447 45.6495Z" fill="#80D25B"/>
</svg>
