<svg width="142" height="120" viewBox="0 0 142 120" fill="none" xmlns="http://www.w3.org/2000/svg">
    <rect x="0.366699" y="0.0349121" width="141.633" height="119.703" rx="14.7604" fill="#F7C053"/>
    <path d="M53.7331 67.5291L48.5441 65.6715C48.2501 65.5647 47.9205 65.5778 47.6265 65.6827C47.3438 65.7894 47.0853 65.9879 46.9318 66.2595L44.1435 71.0084C43.5667 71.9953 42.1079 71.866 41.7184 70.7968L37.7897 60.0049L35.1999 52.8928L33.3977 47.9456C32.8272 46.3795 33.634 44.6474 35.1999 44.0765C41.2186 41.8879 47.8721 44.9915 50.0628 51.0094L51.1077 53.8796L55.4503 65.8007C55.8379 66.8699 54.8042 67.9055 53.7331 67.5291Z" fill="#E46047"/>
    <path d="M35.7937 43.8588C33.897 44.5488 32.9191 46.6462 33.6099 48.5427L41.7144 70.7912C42.1077 71.8661 43.5702 71.9915 44.1432 71.0103L46.9259 66.2651C47.1854 65.8194 47.4853 65.2869 47.3088 64.8023L40.4756 46.0418C39.7853 44.1464 37.6894 43.1692 35.7937 43.8588Z" fill="#C2523C"/>
    <path d="M35.1997 44.0765C36.7656 44.6474 37.5724 46.3795 37.0019 47.9456L35.1997 52.8928L32.6118 60.0049L28.6811 70.7968C28.2935 71.866 26.8216 71.9953 26.258 71.0084L23.4678 66.2595C23.3161 65.9879 23.0577 65.7894 22.7618 65.6827C22.4809 65.5778 22.1514 65.5647 21.8574 65.6715L16.6684 67.5291C15.5972 67.9055 14.5617 66.8699 14.9493 65.8007L19.2919 53.8796L20.3379 51.0073C22.5291 44.9904 29.1819 41.8879 35.1997 44.0765Z" fill="#E46047"/>
    <path d="M34.6035 43.8588C36.5002 44.5488 37.4781 46.6462 36.7873 48.5427L28.6827 70.7912C28.2895 71.8661 26.827 71.9915 26.254 71.0103L23.4713 66.2651C23.2118 65.8194 22.9118 65.2869 23.0884 64.8023L29.9216 46.0418C30.6119 44.1464 32.7078 43.1692 34.6035 43.8588Z" fill="#C2523C"/>
    <path d="M49.1098 48.3917C50.3208 51.7182 49.4899 55.5894 46.3855 57.2907C44.2542 58.4587 41.9216 59.3049 39.454 59.7601C38.4828 59.9393 37.5518 59.3519 37.2139 58.4239C36.5295 56.5444 33.8711 56.5442 33.1872 58.4238C32.8495 59.3519 31.9186 59.9393 30.9473 59.7602C28.4792 59.3051 26.1464 58.459 24.015 57.2911C20.91 55.5898 20.0792 51.7179 21.2908 48.3911L21.3963 48.1014C23.0029 43.6896 27.881 41.4147 32.2935 43.0195C34.1709 43.7023 36.2288 43.7023 38.1063 43.0196C42.5195 41.4148 47.3984 43.6904 49.0048 48.1031L49.1098 48.3917Z" fill="#C2523C"/>
    <mask id="mask0_155_1243" style="mask-type:luminance" maskUnits="userSpaceOnUse" x="13" y="15" width="45" height="44">
        <path d="M13.5542 30.0118C13.5542 21.8599 20.1627 15.2514 28.3146 15.2514H42.4144C50.5663 15.2514 57.1748 21.8599 57.1748 30.0118V43.767C57.1748 51.919 50.5663 58.5274 42.4144 58.5274H28.3146C20.1626 58.5274 13.5542 51.919 13.5542 43.767V30.0118Z" fill="white"/>
    </mask>
    <g mask="url(#mask0_155_1243)">
        <path d="M56.7853 36.8183C56.7853 37.5242 56.7516 38.2283 56.6823 38.9324C56.613 39.6347 56.5082 40.3331 56.3715 41.026C56.2329 41.7189 56.0625 42.4024 55.8565 43.0784C55.6505 43.7544 55.4127 44.4192 55.143 45.0708C54.8715 45.7244 54.57 46.3611 54.2367 46.9846C53.9034 47.6082 53.5401 48.2131 53.1487 48.7992C52.7555 49.3872 52.3341 49.9546 51.8866 50.4995C51.4371 51.0463 50.9634 51.5688 50.4634 52.0688C49.9634 52.5669 49.4391 53.0407 48.8941 53.4901C48.3473 53.9376 47.7799 54.3571 47.1919 54.7504C46.6039 55.1436 45.9991 55.505 45.3755 55.8383C44.7519 56.1717 44.1134 56.4732 43.4598 56.7428C42.8063 57.0143 42.1415 57.2522 41.4655 57.4563C40.7895 57.6623 40.1041 57.8327 39.4094 57.9713C38.7165 58.108 38.018 58.2128 37.3139 58.2802C36.6117 58.3495 35.9057 58.3851 35.1979 58.3851C34.4919 58.3851 33.7859 58.3495 33.0837 58.2802C32.3796 58.2128 31.6811 58.108 30.9882 57.9713C30.2935 57.8327 29.6081 57.6623 28.9321 57.4563C28.2561 57.2522 27.5913 57.0143 26.9378 56.7428C26.2843 56.4732 25.6457 56.1717 25.0221 55.8383C24.3985 55.505 23.7937 55.1436 23.2057 54.7504C22.6177 54.3571 22.0503 53.9376 21.5035 53.4901C20.9567 53.0407 20.4342 52.5669 19.9342 52.0688C19.4342 51.5688 18.9605 51.0463 18.5111 50.4995C18.0635 49.9546 17.6422 49.3872 17.2489 48.7992C16.8575 48.2131 16.4943 47.6082 16.1609 46.9846C15.8276 46.3611 15.5261 45.7244 15.2546 45.0708C14.9849 44.4192 14.7471 43.7544 14.5411 43.0784C14.3351 42.4024 14.1647 41.7189 14.0262 41.026C13.8895 40.3331 13.7846 39.6347 13.7153 38.9324C13.646 38.2283 13.6123 37.5242 13.6123 36.8183C13.6123 36.1123 13.646 35.4082 13.7153 34.7041C13.7846 34.0018 13.8895 33.3034 14.0262 32.6105C14.1647 31.9176 14.3351 31.2341 14.5411 30.5581C14.7471 29.8821 14.9849 29.2173 15.2546 28.5657C15.5261 27.9121 15.8276 27.2754 16.1609 26.6519C16.4943 26.0283 16.8575 25.4234 17.2489 24.8373C17.6422 24.2493 18.0635 23.6819 18.5111 23.137C18.9605 22.5902 19.4342 22.0677 19.9342 21.5677C20.4342 21.0696 20.9567 20.5958 21.5035 20.1464C22.0503 19.6989 22.6177 19.2794 23.2057 18.8861C23.7937 18.4929 24.3985 18.1315 25.0221 17.7982C25.6457 17.4648 26.2843 17.1633 26.9378 16.8937C27.5913 16.6222 28.2561 16.3843 28.9321 16.1802C29.6081 15.9742 30.2935 15.8038 30.9882 15.6653C31.6811 15.5286 32.3796 15.4237 33.0837 15.3544C33.7859 15.287 34.4919 15.2514 35.1979 15.2514C35.9057 15.2514 36.6117 15.287 37.3139 15.3544C38.018 15.4237 38.7165 15.5286 39.4094 15.6653C40.1041 15.8038 40.7895 15.9742 41.4655 16.1802C42.1415 16.3843 42.8063 16.6222 43.4598 16.8937C44.1134 17.1633 44.7519 17.4648 45.3755 17.7982C45.9991 18.1315 46.6039 18.4929 47.1919 18.8861C47.7799 19.2794 48.3473 19.6989 48.8941 20.1464C49.4409 20.5958 49.9634 21.0696 50.4634 21.5677C50.9634 22.0677 51.4371 22.5902 51.8866 23.137C52.3341 23.6819 52.7555 24.2493 53.1487 24.8373C53.5401 25.4234 53.9034 26.0283 54.2367 26.6519C54.57 27.2754 54.8715 27.9121 55.143 28.5657C55.4127 29.2173 55.6505 29.8821 55.8565 30.5581C56.0625 31.2341 56.2329 31.9176 56.3715 32.6105C56.5082 33.3034 56.613 34.0018 56.6823 34.7041C56.7516 35.4082 56.7853 36.1123 56.7853 36.8183Z" fill="#FFD45A"/>
    </g>
    <path d="M35.1976 18.4461C25.0574 18.4461 16.8086 26.6875 16.8086 36.8164C16.8086 46.9472 25.0574 55.1905 35.1976 55.1905C45.3378 55.1905 53.5867 46.9472 53.5867 36.8164C53.5885 26.6875 45.3397 18.4461 35.1976 18.4461ZM35.1976 53.0594C26.2334 53.0594 18.9415 45.7731 18.9415 36.8164C18.9415 27.8616 26.2334 20.5753 35.1976 20.5753C44.1618 20.5753 51.4556 27.8616 51.4556 36.8164C51.4556 45.7731 44.1637 53.0594 35.1976 53.0594Z" fill="#E5BE51"/>
    <path d="M45.5697 35.0487C46.197 34.4383 45.8505 33.3784 44.9854 33.251L39.4256 32.4439C39.0811 32.3952 38.7852 32.178 38.6298 31.8672L36.1429 26.8336C35.7553 26.0508 34.6374 26.0508 34.2516 26.8336L31.7648 31.8672C31.6112 32.178 31.3135 32.3952 30.9708 32.4439L25.4091 33.251C24.544 33.3784 24.1994 34.4383 24.8249 35.0487L28.8491 38.9681C29.0963 39.2097 29.2105 39.558 29.1525 39.8988L28.2031 45.4323C28.0551 46.2937 28.9596 46.9492 29.733 46.5428L34.7066 43.9324C35.0138 43.7713 35.3808 43.7713 35.6879 43.9324L40.6615 46.5428C41.4349 46.951 42.3394 46.2937 42.1915 45.4323L41.2421 39.8988C41.1821 39.558 41.2964 39.2097 41.5454 38.9681L45.5697 35.0487Z" fill="#E5BE51"/>
    <path d="M22.0823 26.9572C22.0821 26.9572 22.0819 26.9572 22.0818 26.9573C20.9883 28.0488 19.2135 28.0488 18.1218 26.9575C18.1216 26.9573 18.1212 26.9572 18.1209 26.9572C18.1197 26.9572 18.1191 26.9586 18.1199 26.9594C19.2107 28.0526 19.2105 29.821 18.1196 30.9121C18.1185 30.9131 18.1185 30.9148 18.1195 30.9159C18.1206 30.9169 18.1223 30.9169 18.1233 30.9158C19.2145 29.8248 20.9869 29.8247 22.08 30.9158C22.081 30.9167 22.0826 30.9165 22.0832 30.9153C22.0836 30.9145 22.0834 30.9136 22.0828 30.913C20.9888 29.8215 20.9887 28.0516 22.0827 26.9583C22.0831 26.9579 22.0829 26.9572 22.0823 26.9572Z" fill="white"/>
    <path d="M24.8003 22.784C24.8008 22.7845 24.8016 22.7845 24.8021 22.784C25.8954 21.6936 27.6672 21.6935 28.7606 22.7838C28.761 22.7842 28.7618 22.7839 28.7618 22.7833C28.7618 22.7831 28.7617 22.783 28.7616 22.7828C27.6682 21.6893 27.6682 19.9181 28.7616 18.8264C28.7617 18.8263 28.7618 18.8261 28.7618 18.8259C28.7618 18.8253 28.761 18.8251 28.7606 18.8255C27.6654 19.9176 25.8936 19.9176 24.8021 18.8253C24.8016 18.8248 24.8008 18.8248 24.8003 18.8253C24.7997 18.8258 24.7997 18.8266 24.8003 18.8272C25.8926 19.9205 25.8926 21.6906 24.8003 22.7821C24.7997 22.7826 24.7997 22.7835 24.8003 22.784Z" fill="white"/>
    <path d="M29.4026 24.1941C29.4031 24.1936 29.4031 24.1927 29.4026 24.1922C29.402 24.1917 29.4012 24.1917 29.4007 24.1922C27.738 25.852 25.0448 25.852 23.3803 24.1922C23.3797 24.1917 23.3789 24.1917 23.3784 24.1922C23.3779 24.1927 23.3779 24.1936 23.3784 24.1941C25.04 25.8548 25.04 28.5481 23.3785 30.2088C23.3779 30.2094 23.3777 30.2104 23.3781 30.2111C23.3787 30.2123 23.3803 30.2126 23.3813 30.2116C25.0437 28.5532 27.7373 28.5532 29.3997 30.2116C29.4006 30.2126 29.4023 30.2123 29.4029 30.2111C29.4032 30.2104 29.4031 30.2094 29.4025 30.2088C27.7428 28.5481 27.7428 25.8548 29.4026 24.1941Z" fill="white"/>
</svg>
