<svg width="142" height="120" viewBox="0 0 142 120" fill="none" xmlns="http://www.w3.org/2000/svg">
    <rect y="0.0349121" width="141.633" height="119.703" rx="14.7604" fill="#2BA0CB"/>
    <g clip-path="url(#clip0_155_1263)">
        <path d="M36.6191 51.5069C36.5167 51.5069 36.4194 51.4862 36.3304 51.45C33.6196 51.4483 31.6154 51.4 29.7639 51.3535C28.1811 51.3138 26.7124 51.2776 25.012 51.2776C19.461 51.2776 14.9424 46.6386 14.9424 40.9338C14.9424 37.4778 16.5706 34.3254 19.3251 32.3956C19.1001 31.2712 18.986 30.121 18.986 28.9655C18.986 19.5927 26.4085 11.9651 35.5348 11.9651C41.6447 11.9651 47.241 15.4383 50.1113 20.9085C51.9963 18.927 54.5544 17.813 57.2938 17.813C62.8447 17.813 67.3634 22.452 67.3634 28.1567C67.3634 29.0087 67.2644 29.8485 67.068 30.6642C71.3667 31.9024 74.4066 35.9568 74.4066 40.6234C74.4066 46.3282 69.8896 50.9706 64.337 50.9706C61.7487 50.9706 55.8721 51.1086 50.1902 51.2431C44.4546 51.381 39.0379 51.5069 36.6191 51.5069ZM35.5348 13.5706C27.2713 13.5706 20.5487 20.4757 20.5487 28.9655C20.5487 30.1848 20.6897 31.4006 20.9667 32.5784C21.0456 32.9182 20.9029 33.2734 20.6108 33.4528C18.0393 35.0514 16.5034 37.8486 16.5034 40.9338C16.5034 45.7522 20.3188 49.672 25.0103 49.672C26.7241 49.672 28.2046 49.7082 29.8009 49.7479C31.6557 49.7927 33.6683 49.8428 36.3976 49.8428C36.5 49.8428 36.5956 49.8635 36.6863 49.8997C39.1252 49.8962 44.7299 49.7652 50.1516 49.6375C55.8435 49.503 61.7285 49.3651 64.3353 49.3651C69.0268 49.3651 72.8422 45.4435 72.8422 40.6234C72.8422 36.4293 69.9383 32.8199 65.9366 32.0404C65.7151 31.9973 65.522 31.8576 65.4079 31.6558C65.2954 31.4558 65.2719 31.2143 65.3458 30.9936C65.6479 30.0865 65.8007 29.1328 65.8007 28.1585C65.8007 23.3401 61.9853 19.4202 57.2938 19.4202C54.6333 19.4202 52.1759 20.6654 50.5494 22.8366C50.3799 23.0607 50.1063 23.1849 49.8394 23.1435C49.5658 23.1108 49.3308 22.9331 49.2183 22.6744C46.8029 17.1456 41.4332 13.5706 35.5348 13.5706Z" fill="white"/>
        <path d="M41.0791 36.0724C41.1547 36.0724 41.2218 36.1034 41.2755 36.1672L41.8177 36.7674C41.4064 37.2554 40.9062 37.64 40.3171 37.9142C39.7296 38.1884 39.0196 38.3246 38.1853 38.3246C37.4635 38.3246 36.8089 38.1953 36.2181 37.9383C35.6272 37.6814 35.1236 37.321 34.7074 36.8553C34.2894 36.3897 33.9655 35.8344 33.7372 35.1825C33.5089 34.5341 33.3931 33.8184 33.3931 33.0389C33.3931 32.2594 33.5139 31.5438 33.7523 30.8936C33.9923 30.2435 34.3263 29.6847 34.7611 29.2191C35.1958 28.7517 35.7145 28.3896 36.3188 28.1309C36.9247 27.874 37.5911 27.7463 38.3213 27.7463C39.038 27.7463 39.6708 27.8653 40.2197 28.0999C40.7669 28.3344 41.2487 28.6552 41.6666 29.0587L41.2168 29.702C41.1882 29.7502 41.153 29.7899 41.1077 29.821C41.0623 29.852 41.0019 29.8675 40.9281 29.8675C40.8441 29.8675 40.7401 29.821 40.6192 29.7261C40.4967 29.6313 40.3389 29.5278 40.1425 29.4105C39.9461 29.295 39.6994 29.1915 39.4039 29.0966C39.1085 29.0018 38.746 28.9552 38.3146 28.9552C37.7942 28.9552 37.3192 29.0501 36.8861 29.2346C36.4564 29.4191 36.0838 29.6882 35.7732 30.04C35.4627 30.39 35.2193 30.8195 35.0464 31.3247C34.8735 31.83 34.7879 32.3991 34.7879 33.0355C34.7879 33.6805 34.8786 34.2547 35.0582 34.76C35.2378 35.2653 35.4845 35.693 35.7967 36.0413C36.109 36.3897 36.4749 36.657 36.8995 36.8398C37.3242 37.0226 37.7825 37.114 38.2743 37.114C38.5747 37.114 38.845 37.0968 39.085 37.0588C39.3267 37.0243 39.5483 36.9674 39.7531 36.8898C39.9579 36.8139 40.1459 36.7156 40.3221 36.5984C40.4984 36.4794 40.6729 36.338 40.8475 36.1759C40.9213 36.1086 41.0002 36.0724 41.0791 36.0724Z" fill="white"/>
        <path d="M52.5084 33.0406C52.5084 33.8149 52.3892 34.5254 52.1492 35.1756C51.9092 35.8205 51.5735 36.3793 51.137 36.8466C50.7023 37.314 50.1769 37.6779 49.5676 37.9348C48.9566 38.1918 48.2802 38.3194 47.5399 38.3194C46.7997 38.3194 46.1249 38.1918 45.5156 37.9348C44.9063 37.6779 44.3842 37.314 43.9495 36.8466C43.5131 36.3793 43.1757 35.8223 42.9373 35.1756C42.6973 34.5271 42.5781 33.8149 42.5781 33.0406C42.5781 32.2645 42.6973 31.554 42.9373 30.9056C43.1774 30.2589 43.5148 29.6984 43.9495 29.2311C44.3842 28.762 44.9079 28.3964 45.5156 28.1377C46.1232 27.8773 46.7997 27.748 47.5399 27.748C48.2818 27.748 48.9566 27.8773 49.5676 28.1377C50.1769 28.3964 50.7023 28.7637 51.137 29.2311C51.5735 29.7002 51.9108 30.2589 52.1492 30.9056C52.3892 31.554 52.5084 32.2645 52.5084 33.0406ZM51.1085 33.0406C51.1085 32.4042 51.0246 31.8334 50.855 31.3298C50.6855 30.8228 50.4472 30.3951 50.1383 30.0485C49.8294 29.6984 49.4535 29.4311 49.0137 29.2432C48.5722 29.0552 48.0804 28.9603 47.5366 28.9603C46.9977 28.9603 46.5093 29.0552 46.0678 29.2432C45.6264 29.4311 45.2521 29.6984 44.9415 30.0485C44.6293 30.3969 44.3893 30.8246 44.2197 31.3298C44.0519 31.8351 43.9663 32.4042 43.9663 33.0406C43.9663 33.6752 44.0519 34.2443 44.2197 34.7479C44.3893 35.2497 44.6276 35.6757 44.9415 36.0257C45.2521 36.3758 45.628 36.6414 46.0678 36.8259C46.5093 37.0122 46.9977 37.1053 47.5366 37.1053C48.0787 37.1053 48.5722 37.0122 49.0137 36.8259C49.4535 36.6414 49.8278 36.3741 50.1383 36.0257C50.4488 35.6757 50.6855 35.2497 50.855 34.7479C51.0262 34.2443 51.1085 33.6752 51.1085 33.0406Z" fill="white"/>
        <path d="M57.2122 42.3082C57.2911 42.3082 57.3549 42.3324 57.4019 42.3807C57.4472 42.4272 57.4724 42.491 57.4724 42.5652V43.0205H53.5547V42.7635C53.5547 42.7101 53.5648 42.6549 53.5866 42.5997C53.6084 42.5428 53.6437 42.4893 53.689 42.4428L55.5689 40.5027C55.725 40.3388 55.866 40.1836 55.9953 40.0319C56.1229 39.8818 56.232 39.7318 56.3226 39.5783C56.4132 39.4265 56.4804 39.2731 56.5307 39.1179C56.5794 38.9626 56.6046 38.7971 56.6046 38.6177C56.6046 38.4418 56.5777 38.2866 56.5224 38.1538C56.467 38.0193 56.3948 37.909 56.2991 37.8227C56.2051 37.7365 56.0926 37.671 55.9651 37.6261C55.8375 37.583 55.6982 37.5606 55.5505 37.5606C55.4011 37.5606 55.2634 37.583 55.1376 37.6296C55.0117 37.6727 54.9009 37.7365 54.8035 37.8158C54.7078 37.8952 54.6256 37.99 54.5601 38.1004C54.4947 38.2107 54.4494 38.3315 54.4208 38.4625C54.3889 38.5608 54.3436 38.6264 54.2882 38.6591C54.2311 38.6919 54.1539 38.7005 54.0515 38.6867L53.6705 38.6177C53.7091 38.3435 53.783 38.1004 53.8954 37.8883C54.0045 37.6779 54.1455 37.5002 54.3134 37.3554C54.4812 37.214 54.6726 37.1053 54.8875 37.0294C55.104 36.9553 55.3373 36.9191 55.5891 36.9191C55.8375 36.9191 56.0691 36.957 56.284 37.0312C56.5005 37.107 56.6885 37.2157 56.8446 37.3605C57.0041 37.5071 57.1283 37.683 57.219 37.89C57.3096 38.0969 57.3532 38.3332 57.3532 38.597C57.3532 38.8212 57.3213 39.0316 57.2559 39.2213C57.1904 39.4145 57.1015 39.5973 56.9907 39.7697C56.8782 39.9456 56.749 40.1146 56.6029 40.2802C56.4569 40.4457 56.3008 40.613 56.138 40.782L54.5887 42.4048C54.6978 42.3755 54.8086 42.3496 54.921 42.3324C55.0318 42.3134 55.1409 42.3048 55.245 42.3048H57.2122V42.3082Z" fill="white"/>
    </g>
    <defs>
        <clipPath id="clip0_155_1263">
            <rect x="7" width="67.1419" height="68.9814" rx="14.7604" fill="white"/>
        </clipPath>
    </defs>
</svg>
