<svg width="142" height="120" viewBox="0 0 142 120" fill="none" xmlns="http://www.w3.org/2000/svg">
    <rect x="0.294922" y="6.10352e-05" width="141.633" height="119.703" rx="14.7604" fill="#CF8DCD"/>
    <path d="M42.9257 67.8515C59.4533 67.8515 72.8515 54.4533 72.8515 37.9257C72.8515 21.3982 59.4533 8 42.9257 8C26.3982 8 13 21.3982 13 37.9257C13 54.4533 26.3982 67.8515 42.9257 67.8515Z" fill="#FFD6D6"/>
    <path opacity="0.1" d="M72.8518 37.9258C72.8518 37.118 72.5067 36.353 71.9356 35.7819L69.8148 33.6612C67.771 31.6173 64.9989 30.4691 62.1084 30.4691H53.5666C45.4146 30.4691 38.8062 37.0776 38.8062 45.2295V63.435C38.8062 65.8035 40.5576 67.8515 42.9261 67.8515C59.4537 67.8515 72.8518 54.4534 72.8518 37.9258Z" fill="#18944D"/>
    <path d="M33.736 32.2888C33.214 30.9637 32.5256 29.6967 31.4983 28.7103C30.4664 27.7196 29.0486 26.6293 27.8069 26.6293C27.3177 26.6293 26.3491 26.6293 25.1298 26.6293C19.131 26.6293 13.3742 30.2739 13.0455 36.2637C13.0153 36.8139 13 37.368 13 37.9258C13 51.9042 22.5842 63.6437 35.5395 66.9325C37.7922 67.5044 40.1197 66.6546 41.7631 65.0112C43.8818 62.8925 44.5419 59.7187 43.4436 56.9309L33.736 32.2888Z" fill="#EFF0F0"/>
    <path opacity="0.1" d="M33.2031 34.8414C29.3666 34.8414 27.4452 39.48 30.158 42.1929C32.8709 44.9058 37.5095 42.9844 37.5095 39.1478C37.5095 36.7695 35.5815 34.8414 33.2031 34.8414Z" fill="black"/>
    <path opacity="0.8" d="M28.351 54.7081C24.0117 54.7081 21.6937 59.4533 25.1868 62.0279C27.881 64.0137 30.9202 65.5586 34.1979 66.5563C35.9538 67.0908 37.8299 66.0226 37.8299 64.1872C37.83 58.952 33.5862 54.7081 28.351 54.7081Z" fill="black"/>
    <path opacity="0.1" d="M44.642 59.9726C43.9716 58.2707 41.7762 57.8141 40.4827 59.1075L36.5713 63.019C35.0714 64.5188 35.6678 67.0427 37.7574 67.4064C38.6281 67.5579 39.524 67.2506 40.1489 66.6257L44.0749 62.6996C44.7899 61.9846 45.0127 60.9135 44.642 59.9726Z" fill="black"/>
    <path d="M60.0201 27.6138C57.5093 27.6138 54.6247 28.8337 52.3955 27.6784L51.1017 27.0079C50.5072 26.6998 49.9637 26.302 49.4902 25.8285L48.833 25.1714C48.3503 24.6887 47.82 24.2464 47.1667 24.0483C46.4404 23.8281 45.246 23.5984 43.4231 23.5984C41.6002 23.5984 40.4058 23.8281 39.6795 24.0483C39.0262 24.2464 38.496 24.6886 38.0132 25.1714L37.3561 25.8285C36.8826 26.302 36.339 26.6998 35.7445 27.0079L34.4506 27.6785C32.2215 28.8337 29.3369 27.6138 26.8262 27.6138C24.0815 27.6138 22.4558 28.2532 21.5047 28.9269C20.4022 29.7078 20.2057 31.2037 20.8851 32.3715C22.0616 34.3939 24.5483 36.755 26.2016 37.2841C27.228 37.6125 28.7267 37.0197 30.0457 36.8742C30.2467 36.8521 30.4492 36.8701 30.6471 36.9117C31.6536 37.1229 32.403 37.9663 32.4954 38.9906C32.7397 41.6983 33.2115 46.7811 33.4294 48.1367C33.7267 49.9868 36.3294 55.2307 37.534 59.0229C38.2874 61.3946 40.4019 62.0911 41.8803 62.2801C42.9 62.4105 43.9463 62.4105 44.966 62.2801C46.4445 62.0911 48.5591 61.3947 49.3125 59.0229C50.5171 55.2307 53.1197 49.9868 53.4171 48.1367C53.6349 46.7811 54.1068 41.6983 54.3511 38.9906C54.4435 37.9663 55.1929 37.1229 56.1994 36.9117C56.3973 36.8701 56.5998 36.8521 56.8008 36.8742C58.1197 37.0197 59.6185 37.6126 60.6449 37.2841C61.1159 37.1334 61.6546 36.8339 62.2113 36.436C65.6261 33.9952 64.2174 27.6138 60.0201 27.6138Z" fill="#EFF0F0"/>
    <path opacity="0.8" d="M60.0197 27.6138C59.4923 27.6138 59.0134 27.7221 58.5881 27.8895C57.0274 28.5039 55.186 29.1248 53.6968 28.353C51.8948 27.4192 49.6895 28.3289 49.1028 30.2718C47.1096 36.8736 44.5158 46.2111 44.5158 47.9584C44.5158 49.2299 45.8293 51.1287 46.0718 51.5554C46.3142 51.9821 47.6138 52.1884 47.929 52.6095C48.3685 53.1971 47.7108 53.9145 46.977 53.9145H43.4228H43.4227H39.8685C39.1347 53.9145 38.4769 53.197 38.9165 52.6095C39.2316 52.1884 40.5312 51.9822 40.7737 51.5554C41.0161 51.1287 42.3296 49.2297 42.3296 47.9584C42.3296 46.2111 39.7357 36.8735 37.7424 30.2717C37.1558 28.3287 34.9505 27.419 33.1485 28.3529C31.6593 29.1247 29.8179 28.5038 28.2572 27.8894C27.8319 27.722 27.353 27.6137 26.8257 27.6137C24.081 27.6137 22.4553 28.2531 21.5042 28.9268C20.4017 29.7077 20.2052 31.2036 20.8846 32.3714C22.0611 34.3938 24.5478 36.7549 26.2011 37.284C27.2275 37.6124 28.7262 37.0196 30.0452 36.8741C30.2462 36.852 30.4487 36.87 30.6466 36.9116C31.6531 37.1228 32.4025 37.9662 32.495 38.9905C32.7393 41.6982 33.2111 46.781 33.4289 48.1366C33.7262 49.9867 36.3289 55.2306 37.5335 59.0228C38.2869 61.3945 40.4014 62.091 41.8798 62.28C42.8996 62.4104 43.9458 62.4104 44.9656 62.28C46.444 62.091 48.5586 61.3946 49.312 59.0228C50.5166 55.2306 53.1192 49.9867 53.4166 48.1366C53.6345 46.781 54.1063 41.6982 54.3506 38.9905C54.443 37.9662 55.1925 37.1228 56.1989 36.9116C56.3968 36.87 56.5993 36.852 56.8003 36.8741C58.1193 37.0196 59.618 37.6125 60.6444 37.284C61.1155 37.1332 61.6542 36.8338 62.211 36.4358C65.0516 34.4054 63.5113 27.6138 60.0197 27.6138Z" fill="black"/>
    <path d="M34.2202 39.8606C34.9224 39.8606 35.4917 39.2913 35.4917 38.5891C35.4917 37.8869 34.9224 37.3176 34.2202 37.3176C33.518 37.3176 32.9487 37.8869 32.9487 38.5891C32.9487 39.2913 33.518 39.8606 34.2202 39.8606Z" fill="#231F20"/>
    <path d="M52.624 39.8606C53.3263 39.8606 53.8955 39.2913 53.8955 38.5891C53.8955 37.8869 53.3263 37.3176 52.624 37.3176C51.9218 37.3176 51.3525 37.8869 51.3525 38.5891C51.3525 39.2913 51.9218 39.8606 52.624 39.8606Z" fill="#231F20"/>
    <path d="M39.7933 58.0264C38.4586 55.3168 40.4021 52.3586 43.4226 52.3586C46.4431 52.3586 48.3868 55.3169 47.052 58.0265C46.3881 59.374 45.2782 60.4896 43.4226 60.4896C41.567 60.4896 40.4571 59.3739 39.7933 58.0264Z" fill="#EBAC7C"/>
    <path opacity="0.1" d="M47.9233 54.9437C48.0548 53.9607 48.4801 53.5484 47.585 53.1213C45.9824 52.3566 43.4224 53.7981 43.4224 55.5739V56.4241C43.4224 58.6695 45.5922 60.4482 46.7705 58.5368C47.4677 57.4058 47.7818 56.0013 47.9233 54.9437Z" fill="black"/>
    <path d="M38.8062 53.3791C39.4755 53.3791 39.0962 54.5391 39.4755 54.9183C39.8547 55.2975 41.037 55.9222 41.037 56.9037C41.037 57.8851 40.7693 58.2756 39.4085 58.2756C38.0478 58.2757 38.2485 53.3791 38.8062 53.3791Z" fill="#231F20"/>
    <path d="M48.0389 53.3791C47.3695 53.3791 47.7488 54.5391 47.3695 54.9183C46.9902 55.2975 45.8081 55.9222 45.8081 56.9037C45.8081 57.8851 46.0758 58.2756 47.4366 58.2756C48.7974 58.2756 48.5966 53.3791 48.0389 53.3791Z" fill="#231F20"/>
    <path opacity="0.3" d="M27.9257 32.8337C27.8263 32.6714 27.6753 32.541 27.4913 32.4366C26.5593 31.9076 26.0842 33.2343 26.9366 33.8837C27.5637 34.3616 28.4199 34.0304 28.1477 33.2904C28.093 33.1416 28.0205 32.9884 27.9257 32.8337Z" fill="white"/>
    <path opacity="0.3" d="M58.919 32.8337C59.0185 32.6714 59.1695 32.541 59.3535 32.4366C60.2855 31.9076 60.7606 33.2343 59.9082 33.8837C59.2811 34.3616 58.4249 34.0304 58.6971 33.2904C58.7518 33.1416 58.8242 32.9884 58.919 32.8337Z" fill="white"/>
    <path opacity="0.8" d="M20.6221 45.7263V43.5132C20.6221 40.1378 18.2995 37.2744 15.0764 36.258C13.9988 35.9181 13 36.7958 13 37.9257C13 40.2962 13.2758 42.6022 13.7969 44.8135C14.811 49.1169 20.6221 50.1475 20.6221 45.7263Z" fill="black"/>
</svg>
