<svg width="21" height="14" viewBox="0 0 21 14" fill="none" xmlns="http://www.w3.org/2000/svg">
<path d="M1.4677 1.99039C0.928934 1.99039 0.49792 1.54958 0.49792 1.02061C0.49792 0.472049 0.928934 0.0410356 1.4677 0.0410356H3.14278C3.68154 0.0410356 4.12235 0.472049 4.12235 1.02061C4.12235 1.54958 3.68154 1.99039 3.14278 1.99039H1.4677ZM7.04149 1.80427C6.59089 1.80427 6.24803 1.46142 6.24803 1.02061C6.24803 0.570007 6.59089 0.227155 7.04149 0.227155H19.4429C19.8837 0.227155 20.2364 0.570007 20.2364 1.02061C20.2364 1.46142 19.8837 1.80427 19.4429 1.80427H7.04149ZM1.4677 7.91683C0.928934 7.91683 0.49792 7.47602 0.49792 6.93725C0.49792 6.39849 0.928934 5.96747 1.4677 5.96747H3.14278C3.68154 5.96747 4.12235 6.39849 4.12235 6.93725C4.12235 7.47602 3.68154 7.91683 3.14278 7.91683H1.4677ZM7.04149 7.73071C6.59089 7.73071 6.24803 7.37806 6.24803 6.93725C6.24803 6.49644 6.59089 6.15359 7.04149 6.15359H19.4429C19.8837 6.15359 20.2364 6.49644 20.2364 6.93725C20.2364 7.37806 19.8837 7.73071 19.4429 7.73071H7.04149ZM1.4677 13.8335C0.928934 13.8335 0.49792 13.3927 0.49792 12.8637C0.49792 12.3151 0.928934 11.8841 1.4677 11.8841H3.14278C3.68154 11.8841 4.12235 12.3151 4.12235 12.8637C4.12235 13.3927 3.68154 13.8335 3.14278 13.8335H1.4677ZM7.04149 13.6474C6.59089 13.6474 6.24803 13.3045 6.24803 12.8637C6.24803 12.4131 6.59089 12.0702 7.04149 12.0702H19.4429C19.8837 12.0702 20.2364 12.4131 20.2364 12.8637C20.2364 13.3045 19.8837 13.6474 19.4429 13.6474H7.04149Z" fill="#9DB2CE"/>
</svg>
